 
<svg xmlns="http://www.w3.org/2000/svg" version="1.0" width="300mm" height="200mm" viewBox="0 0 300 200"><path fill="none" stroke="black" stroke-width="0.1" d="M0,20 C4,19.78 10.08,17.29 8.46,21.29 C6.83,25.29 14.83,25.29 12.46,21.29 C10.08,17.29 16,19.47 20,20 C24,20.53 30.63,22.74 28.34,18.74 C26.05,14.74 34.05,14.74 32.34,18.74 C30.63,22.74 36,19.4 40,20 C44,20.6 49.2,21.91 47.24,17.91 C45.28,13.91 53.28,13.91 51.24,17.91 C49.2,21.91 56,20.44 60,20 C64,19.56 69.93,18.61 67.96,22.61 C65.98,26.61 73.98,26.61 71.96,22.61 C69.93,18.61 76,19.94 80,20 C84,20.06 90.07,17.81 88.19,21.81 C86.31,25.81 94.31,25.81 92.19,21.81 C90.07,17.81 96,19.54 100,20 C104,20.46 110.76,21.37 107.98,17.37 C105.19,13.37 113.19,13.37 111.98,17.37 C110.76,21.37 116,19.58 120,20 C124,20.42 128.45,18.75 127.23,22.75 C126.02,26.75 134.02,26.75 131.23,22.75 C128.45,18.75 136,19.77 140,20 C144,20.23 150.38,18.44 147.6,22.44 C144.82,26.44 152.82,26.44 151.6,22.44 C150.38,18.44 156,20.68 160,20 C164,19.32 169.39,21.97 167.68,17.97 C165.97,13.97 173.97,13.97 171.68,17.97 C169.39,21.97 176,19.95 180,20 C184,20.05 189.68,17.89 188.33,21.89 C186.98,25.89 194.98,25.89 192.33,21.89 C189.68,17.89 196,19.27 200,20 C204,20.73 209.91,22.16 207.55,18.16 C205.19,14.16 213.19,14.16 211.55,18.16 C209.91,22.16 216,19.89 220,20 C224,20.11 231.32,18.72 228.77,22.72 C226.21,26.72 234.21,26.72 232.77,22.72 C231.32,18.72 236,19.4 240,20 C244,20.6 250.39,21.78 248.21,17.78 C246.02,13.78 254.02,13.78 252.21,17.78 C250.39,21.78 256,20.4 260,20 C264,19.6 270.21,21.8 268.71,17.8 C267.22,13.8 275.22,13.8 272.71,17.8 C270.21,21.8 276,19.54 280,20 C284,20.46 288.92,17.27 287.69,21.27 C286.47,25.27 294.47,25.27 291.69,21.27 C288.92,17.27 296,20.24 300,20 M0,40 C4,39.99 9.71,37.92 7.35,41.92 C4.99,45.92 12.99,45.92 11.35,41.92 C9.71,37.92 16,40.46 20,40 C24,39.54 30.58,37.52 28.76,41.52 C26.94,45.52 34.94,45.52 32.76,41.52 C30.58,37.52 36,39.36 40,40 C44,40.64 50.9,37.29 48.71,41.29 C46.52,45.29 54.52,45.29 52.71,41.29 C50.9,37.29 56,40.05 60,40 C64,39.95 70.17,42.33 67.41,38.33 C64.64,34.33 72.64,34.33 71.41,38.33 C70.17,42.33 76,40.1 80,40 C84,39.9 89.98,37.95 88.36,41.95 C86.75,45.95 94.75,45.95 92.36,41.95 C89.98,37.95 96,40.53 100,40 C104,39.47 109.66,41.42 107.99,37.42 C106.31,33.42 114.31,33.42 111.99,37.42 C109.66,41.42 116,40.75 120,40 C124,39.25 130.36,41.39 127.91,37.39 C125.46,33.39 133.46,33.39 131.91,37.39 C130.36,41.39 136,39.43 140,40 C144,40.57 148.98,38.17 147.43,42.17 C145.87,46.17 153.87,46.17 151.43,42.17 C148.98,38.17 156,40.02 160,40 C164,39.98 169.88,42.61 167.88,38.61 C165.89,34.61 173.89,34.61 171.88,38.61 C169.88,42.61 176,40.64 180,40 C184,39.36 190.08,37.68 188.01,41.68 C185.95,45.68 193.95,45.68 192.01,41.68 C190.08,37.68 196,39.68 200,40 C204,40.32 209.26,38.18 207.78,42.18 C206.29,46.18 214.29,46.18 211.78,42.18 C209.26,38.18 216,39.59 220,40 C224,40.41 231.48,42.25 228.73,38.25 C225.98,34.25 233.98,34.25 232.73,38.25 C231.48,42.25 236,40.04 240,40 C244,39.96 251.42,38.17 248.64,42.17 C245.87,46.17 253.87,46.17 252.64,42.17 C251.42,38.17 256,39.29 260,40 C264,40.71 269.49,41.58 267.44,37.58 C265.4,33.58 273.4,33.58 271.44,37.58 C269.49,41.58 276,39.99 280,40 C284,40.01 289.73,38.79 287.56,42.79 C285.38,46.79 293.38,46.79 291.56,42.79 C289.73,38.79 296,39.48 300,40 M0,60 C4,60.58 8.96,57.95 7.32,61.95 C5.69,65.95 13.69,65.95 11.32,61.95 C8.96,57.95 16,59.71 20,60 C24,60.29 29.04,58.44 27.68,62.44 C26.33,66.44 34.33,66.44 31.68,62.44 C29.04,58.44 36,59.29 40,60 C44,60.71 50.2,61.88 48.04,57.88 C45.89,53.88 53.89,53.88 52.04,57.88 C50.2,61.88 56,60.71 60,60 C64,59.29 70.56,61.51 68.62,57.51 C66.68,53.51 74.68,53.51 72.62,57.51 C70.56,61.51 76,59.52 80,60 C84,60.48 89.91,61.62 88.05,57.62 C86.19,53.62 94.19,53.62 92.05,57.62 C89.91,61.62 96,60.2 100,60 C104,59.8 109.65,58.34 108.28,62.34 C106.9,66.34 114.9,66.34 112.28,62.34 C109.65,58.34 116,59.39 120,60 C124,60.61 130.44,57.73 128.4,61.73 C126.36,65.73 134.36,65.73 132.4,61.73 C130.44,57.73 136,59.69 140,60 C144,60.31 149.49,61.88 148.23,57.88 C146.96,53.88 154.96,53.88 152.23,57.88 C149.49,61.88 156,59.57 160,60 C164,60.43 168.68,58.74 167.45,62.74 C166.22,66.74 174.22,66.74 171.45,62.74 C168.68,58.74 176,59.36 180,60 C184,60.64 189.36,57.82 188.09,61.82 C186.83,65.82 194.83,65.82 192.09,61.82 C189.36,57.82 196,60.49 200,60 C204,59.51 208.79,62.74 207.5,58.74 C206.2,54.74 214.2,54.74 211.5,58.74 C208.79,62.74 216,59.79 220,60 C224,60.21 229.11,61.72 227.42,57.72 C225.73,53.72 233.73,53.72 231.42,57.72 C229.11,61.72 236,59.5 240,60 C244,60.5 249.56,57.44 247.33,61.44 C245.11,65.44 253.11,65.44 251.33,61.44 C249.56,57.44 256,60.13 260,60 C264,59.87 270.21,57.51 267.85,61.51 C265.5,65.51 273.5,65.51 271.85,61.51 C270.21,57.51 276,59.82 280,60 C284,60.18 289.62,61.96 287.92,57.96 C286.22,53.96 294.22,53.96 291.92,57.96 C289.62,61.96 296,59.39 300,60 M0,80 C4,79.35 9.4,78.23 7.98,82.23 C6.56,86.23 14.56,86.23 11.98,82.23 C9.4,78.23 16,80.48 20,80 C24,79.52 30.49,78.39 28.45,82.39 C26.41,86.39 34.41,86.39 32.45,82.39 C30.49,78.39 36,80.45 40,80 C44,79.55 50.03,78.04 48.07,82.04 C46.11,86.04 54.11,86.04 52.07,82.04 C50.03,78.04 56,79.84 60,80 C64,80.16 69.35,82.34 67.98,78.34 C66.61,74.34 74.61,74.34 71.98,78.34 C69.35,82.34 76,80.76 80,80 C84,79.24 90.21,81.6 87.45,77.6 C84.68,73.6 92.68,73.6 91.45,77.6 C90.21,81.6 96,80.73 100,80 C104,79.27 109.24,82.53 108.04,78.53 C106.84,74.53 114.84,74.53 112.04,78.53 C109.24,82.53 116,80.09 120,80 C124,79.91 130.97,78.21 128.69,82.21 C126.41,86.21 134.41,86.21 132.69,82.21 C130.97,78.21 136,79.65 140,80 C144,80.35 150.93,77.94 148.29,81.94 C145.65,85.94 153.65,85.94 152.29,81.94 C150.93,77.94 156,79.27 160,80 C164,80.73 170.75,81.46 168.04,77.46 C165.34,73.46 173.34,73.46 172.04,77.46 C170.75,81.46 176,79.66 180,80 C184,80.34 190.36,78.77 188.57,82.77 C186.77,86.77 194.77,86.77 192.57,82.77 C190.36,78.77 196,80.44 200,80 C204,79.56 208.69,77.54 207.27,81.54 C205.85,85.54 213.85,85.54 211.27,81.54 C208.69,77.54 216,80.62 220,80 C224,79.38 229.37,81.32 227.43,77.32 C225.49,73.32 233.49,73.32 231.43,77.32 C229.37,81.32 236,79.41 240,80 C244,80.59 249.65,78.24 248.03,82.24 C246.42,86.24 254.42,86.24 252.03,82.24 C249.65,78.24 256,80.24 260,80 C264,79.76 270.31,82.4 268.07,78.4 C265.83,74.4 273.83,74.4 272.07,78.4 C270.31,82.4 276,80.05 280,80 C284,79.95 290.95,81.37 288.48,77.37 C286.01,73.37 294.01,73.37 292.48,77.37 C290.95,81.37 296,79.51 300,80 M0,100 C4,100.53 10.89,97.26 8.64,101.26 C6.4,105.26 14.4,105.26 12.64,101.26 C10.89,97.26 16,100.17 20,100 C24,99.83 30.17,102.01 27.44,98.01 C24.71,94.01 32.71,94.01 31.44,98.01 C30.17,102.01 36,100.1 40,100 C44,99.9 51.3,102.63 48.5,98.63 C45.71,94.63 53.71,94.63 52.5,98.63 C51.3,102.63 56,100.71 60,100 C64,99.29 70.52,102.51 68.2,98.51 C65.88,94.51 73.88,94.51 72.2,98.51 C70.52,102.51 76,99.75 80,100 C84,100.25 89.85,98.48 87.89,102.48 C85.93,106.48 93.93,106.48 91.89,102.48 C89.85,98.48 96,99.65 100,100 C104,100.35 110.99,98.25 108.6,102.25 C106.21,106.25 114.21,106.25 112.6,102.25 C110.99,98.25 116,99.48 120,100 C124,100.52 130.83,102.61 128.59,98.61 C126.35,94.61 134.35,94.61 132.59,98.61 C130.83,102.61 136,99.98 140,100 C144,100.02 150.58,101.94 147.85,97.94 C145.13,93.94 153.13,93.94 151.85,97.94 C150.58,101.94 156,100.7 160,100 C164,99.3 169.97,102.47 167.6,98.47 C165.23,94.47 173.23,94.47 171.6,98.47 C169.97,102.47 176,99.84 180,100 C184,100.16 189.71,102.14 188.05,98.14 C186.38,94.14 194.38,94.14 192.05,98.14 C189.71,102.14 196,99.5 200,100 C204,100.5 209.81,102.67 207.92,98.67 C206.03,94.67 214.03,94.67 211.92,98.67 C209.81,102.67 216,99.73 220,100 C224,100.27 230.26,97.94 227.74,101.94 C225.22,105.94 233.22,105.94 231.74,101.94 C230.26,97.94 236,100.42 240,100 C244,99.58 248.66,97.6 247.37,101.6 C246.07,105.6 254.07,105.6 251.37,101.6 C248.66,97.6 256,100.41 260,100 C264,99.59 270.45,98.73 268.42,102.73 C266.39,106.73 274.39,106.73 272.42,102.73 C270.45,98.73 276,99.4 280,100 C284,100.6 290.58,101.92 288.39,97.92 C286.2,93.92 294.2,93.92 292.39,97.92 C290.58,101.92 296,99.23 300,100 M0,120 C4,119.58 9.64,117.74 8.43,121.74 C7.22,125.74 15.22,125.74 12.43,121.74 C9.64,117.74 16,119.85 20,120 C24,120.15 30.4,122.61 27.69,118.61 C24.98,114.61 32.98,114.61 31.69,118.61 C30.4,122.61 36,119.88 40,120 C44,120.12 50.13,118.26 48.08,122.26 C46.02,126.26 54.02,126.26 52.08,122.26 C50.13,118.26 56,120.18 60,120 C64,119.82 69.97,122.04 68.59,118.04 C67.22,114.04 75.22,114.04 72.59,118.04 C69.97,122.04 76,120.12 80,120 C84,119.88 89.06,121.66 87.86,117.66 C86.66,113.66 94.66,113.66 91.86,117.66 C89.06,121.66 96,119.82 100,120 C104,120.18 109.42,117.56 107.75,121.56 C106.09,125.56 114.09,125.56 111.75,121.56 C109.42,117.56 116,120.42 120,120 C124,119.58 129.27,122.77 127.48,118.77 C125.69,114.77 133.69,114.77 131.48,118.77 C129.27,122.77 136,119.24 140,120 C144,120.76 151.34,117.72 148.56,121.72 C145.79,125.72 153.79,125.72 152.56,121.72 C151.34,117.72 156,120.02 160,120 C164,119.98 169.32,122.61 167.75,118.61 C166.19,114.61 174.19,114.61 171.75,118.61 C169.32,122.61 176,119.8 180,120 C184,120.2 189.57,118.17 187.28,122.17 C184.99,126.17 192.99,126.17 191.28,122.17 C189.57,118.17 196,119.62 200,120 C204,120.38 209.72,122.7 208.15,118.7 C206.57,114.7 214.57,114.7 212.15,118.7 C209.72,122.7 216,119.79 220,120 C224,120.21 230.53,118.24 227.74,122.24 C224.96,126.24 232.96,126.24 231.74,122.24 C230.53,118.24 236,119.85 240,120 C244,120.15 249.31,121.44 247.58,117.44 C245.85,113.44 253.85,113.44 251.58,117.44 C249.31,121.44 256,120.55 260,120 C264,119.45 270.26,121.39 268.01,117.39 C265.75,113.39 273.75,113.39 272.01,117.39 C270.26,121.39 276,120.74 280,120 C284,119.26 290.96,122.34 288.45,118.34 C285.94,114.34 293.94,114.34 292.45,118.34 C290.96,122.34 296,119.65 300,120 M0,140 C4,139.44 10.55,142.35 8.51,138.35 C6.46,134.35 14.46,134.35 12.51,138.35 C10.55,142.35 16,139.92 20,140 C24,140.08 28.93,138.63 27.72,142.63 C26.51,146.63 34.51,146.63 31.72,142.63 C28.93,138.63 36,139.61 40,140 C44,140.39 49,141.78 47.33,137.78 C45.66,133.78 53.66,133.78 51.33,137.78 C49,141.78 56,140.79 60,140 C64,139.21 70.34,142.58 68.09,138.58 C65.84,134.58 73.84,134.58 72.09,138.58 C70.34,142.58 76,139.53 80,140 C84,140.47 89.75,138.33 88.2,142.33 C86.66,146.33 94.66,146.33 92.2,142.33 C89.75,138.33 96,140.69 100,140 C104,139.31 108.78,137.85 107.22,141.85 C105.66,145.85 113.66,145.85 111.22,141.85 C108.78,137.85 116,139.5 120,140 C124,140.5 129.58,142.5 127.51,138.5 C125.44,134.5 133.44,134.5 131.51,138.5 C129.58,142.5 136,140.03 140,140 C144,139.97 150.74,138.67 148.71,142.67 C146.67,146.67 154.67,146.67 152.71,142.67 C150.74,138.67 156,139.2 160,140 C164,140.8 169.46,142.26 167.33,138.26 C165.2,134.26 173.2,134.26 171.33,138.26 C169.46,142.26 176,139.67 180,140 C184,140.33 190.19,138.51 187.4,142.51 C184.62,146.51 192.62,146.51 191.4,142.51 C190.19,138.51 196,140.18 200,140 C204,139.82 210.4,137.9 207.6,141.9 C204.81,145.9 212.81,145.9 211.6,141.9 C210.4,137.9 216,139.72 220,140 C224,140.28 230.31,141.83 228.56,137.83 C226.81,133.83 234.81,133.83 232.56,137.83 C230.31,141.83 236,139.72 240,140 C244,140.28 250.91,142.1 248.16,138.1 C245.41,134.1 253.41,134.1 252.16,138.1 C250.91,142.1 256,139.82 260,140 C264,140.18 270.62,142.5 268.56,138.5 C266.49,134.5 274.49,134.5 272.56,138.5 C270.62,142.5 276,140.39 280,140 C284,139.61 290.66,138.09 288.18,142.09 C285.7,146.09 293.7,146.09 292.18,142.09 C290.66,138.09 296,139.22 300,140 M0,160 C4,160.57 9.77,157.29 7.37,161.29 C4.97,165.29 12.97,165.29 11.37,161.29 C9.77,157.29 16,159.31 20,160 C24,160.69 29.81,158.2 27.23,162.2 C24.65,166.2 32.65,166.2 31.23,162.2 C29.81,158.2 36,159.31 40,160 C44,160.69 50.58,161.32 48.34,157.32 C46.11,153.32 54.11,153.32 52.34,157.32 C50.58,161.32 56,159.75 60,160 C64,160.25 69.35,161.92 67.72,157.92 C66.08,153.92 74.08,153.92 71.72,157.92 C69.35,161.92 76,159.42 80,160 C84,160.58 90,162.4 88.16,158.4 C86.32,154.4 94.32,154.4 92.16,158.4 C90,162.4 96,160.75 100,160 C104,159.25 110.9,162.16 108.49,158.16 C106.08,154.16 114.08,154.16 112.49,158.16 C110.9,162.16 116,159.39 120,160 C124,160.61 129.36,161.5 127.27,157.5 C125.18,153.5 133.18,153.5 131.27,157.5 C129.36,161.5 136,159.55 140,160 C144,160.45 149.87,162.39 147.83,158.39 C145.78,154.39 153.78,154.39 151.83,158.39 C149.87,162.39 156,159.63 160,160 C164,160.37 169.85,157.49 167.96,161.49 C166.07,165.49 174.07,165.49 171.96,161.49 C169.85,157.49 176,160.4 180,160 C184,159.6 189.28,162.29 187.41,158.29 C185.55,154.29 193.55,154.29 191.41,158.29 C189.28,162.29 196,159.57 200,160 C204,160.43 209.61,157.22 208.2,161.22 C206.8,165.22 214.8,165.22 212.2,161.22 C209.61,157.22 216,160.36 220,160 C224,159.64 228.92,161.58 227.63,157.58 C226.33,153.58 234.33,153.58 231.63,157.58 C228.92,161.58 236,159.27 240,160 C244,160.73 250.04,157.3 247.85,161.3 C245.66,165.3 253.66,165.3 251.85,161.3 C250.04,157.3 256,160.16 260,160 C264,159.84 270.29,162.75 268.36,158.75 C266.44,154.75 274.44,154.75 272.36,158.75 C270.29,162.75 276,160.32 280,160 C284,159.68 290.35,157.7 287.77,161.7 C285.2,165.7 293.2,165.7 291.77,161.7 C290.35,157.7 296,160.63 300,160 M0,180 C4,180.8 10.15,182.74 7.57,178.74 C4.99,174.74 12.99,174.74 11.57,178.74 C10.15,182.74 16,179.43 20,180 C24,180.57 31.03,182.31 28.51,178.31 C25.98,174.31 33.98,174.31 32.51,178.31 C31.03,182.31 36,180.46 40,180 C44,179.54 50.14,177.57 47.49,181.57 C44.84,185.57 52.84,185.57 51.49,181.57 C50.14,177.57 56,180.24 60,180 C64,179.76 69.17,182.08 67.73,178.08 C66.28,174.08 74.28,174.08 71.73,178.08 C69.17,182.08 76,179.81 80,180 C84,180.19 90.57,182.71 87.88,178.71 C85.19,174.71 93.19,174.71 91.88,178.71 C90.57,182.71 96,179.29 100,180 C104,180.71 109.85,182.51 107.33,178.51 C104.81,174.51 112.81,174.51 111.33,178.51 C109.85,182.51 116,180.56 120,180 C124,179.44 130.23,182.32 128.61,178.32 C126.99,174.32 134.99,174.32 132.61,178.32 C130.23,182.32 136,180.05 140,180 C144,179.95 150.77,178.31 148.55,182.31 C146.33,186.31 154.33,186.31 152.55,182.31 C150.77,178.31 156,179.75 160,180 C164,180.25 169.6,181.37 167.32,177.37 C165.05,173.37 173.05,173.37 171.32,177.37 C169.6,181.37 176,180.71 180,180 C184,179.29 190.32,177.79 188.22,181.79 C186.12,185.79 194.12,185.79 192.22,181.79 C190.32,177.79 196,179.25 200,180 C204,180.75 210.28,178.57 208.64,182.57 C207,186.57 215,186.57 212.64,182.57 C210.28,178.57 216,179.72 220,180 C224,180.28 230.32,177.67 228.09,181.67 C225.85,185.67 233.85,185.67 232.09,181.67 C230.32,177.67 236,179.86 240,180 C244,180.14 251.17,181.29 248.42,177.29 C245.67,173.29 253.67,173.29 252.42,177.29 C251.17,181.29 256,179.78 260,180 C264,180.22 268.84,182.3 267.3,178.3 C265.75,174.3 273.75,174.3 271.3,178.3 C268.84,182.3 276,180.71 280,180 C284,179.29 289.96,178.45 287.87,182.45 C285.78,186.45 293.78,186.45 291.87,182.45 C289.96,178.45 296,180.77 300,180 M20,0 C19.39,4 17.55,10.7 21.55,8.29 C25.55,5.88 25.55,13.88 21.55,12.29 C17.55,10.7 19.58,16 20,20 C20.42,24 21.85,29.83 17.85,27.91 C13.85,25.98 13.85,33.98 17.85,31.91 C21.85,29.83 20.02,36 20,40 C19.98,44 22.03,50.87 18.03,48.22 C14.03,45.56 14.03,53.56 18.03,52.22 C22.03,50.87 20.03,56 20,60 C19.97,64 21.46,69.19 17.46,67.7 C13.46,66.2 13.46,74.2 17.46,71.7 C21.46,69.19 19.58,76 20,80 C20.42,84 18.16,89.68 22.16,88.09 C26.16,86.51 26.16,94.51 22.16,92.09 C18.16,89.68 20.35,96 20,100 C19.65,104 17.67,110.28 21.67,107.68 C25.67,105.09 25.67,113.09 21.67,111.68 C17.67,110.28 20.77,116 20,120 C19.23,124 17.6,130.3 21.6,127.62 C25.6,124.94 25.6,132.94 21.6,131.62 C17.6,130.3 19.62,136 20,140 C20.38,144 22.14,151.28 18.14,148.79 C14.14,146.29 14.14,154.29 18.14,152.79 C22.14,151.28 20.38,156 20,160 C19.62,164 22.36,168.53 18.36,167.27 C14.36,166.01 14.36,174.01 18.36,171.27 C22.36,168.53 20.29,176 20,180 C19.71,184 22.3,189.75 18.3,187.87 C14.3,186 14.3,194 18.3,191.87 C22.3,189.75 19.84,196 20,200 M40,0 C40.6,4 37.23,10.99 41.23,8.21 C45.23,5.42 45.23,13.42 41.23,12.21 C37.23,10.99 39.69,16 40,20 C40.31,24 38.6,30.55 42.6,28.05 C46.6,25.55 46.6,33.55 42.6,32.05 C38.6,30.55 39.72,36 40,40 C40.28,44 37.8,49.74 41.8,47.21 C45.8,44.67 45.8,52.67 41.8,51.21 C37.8,49.74 40.15,56 40,60 C39.85,64 41.49,70.58 37.49,68.59 C33.49,66.6 33.49,74.6 37.49,72.59 C41.49,70.58 40.59,76 40,80 C39.41,84 41.74,89.28 37.74,87.54 C33.74,85.79 33.74,93.79 37.74,91.54 C41.74,89.28 40,96 40,100 C40,104 42.55,109.05 38.55,107.75 C34.55,106.45 34.55,114.45 38.55,111.75 C42.55,109.05 40.05,116 40,120 C39.95,124 37.52,129.22 41.52,127.77 C45.52,126.33 45.52,134.33 41.52,131.77 C37.52,129.22 40.64,136 40,140 C39.36,144 38.57,150.18 42.57,148.25 C46.57,146.32 46.57,154.32 42.57,152.25 C38.57,150.18 40.66,156 40,160 C39.34,164 37.35,169.7 41.35,168.38 C45.35,167.06 45.35,175.06 41.35,172.38 C37.35,169.7 40.31,176 40,180 C39.69,184 38.79,189.52 42.79,187.93 C46.79,186.35 46.79,194.35 42.79,191.93 C38.79,189.52 39.31,196 40,200 M60,0 C59.21,4 61.47,9.64 57.47,7.21 C53.47,4.78 53.47,12.78 57.47,11.21 C61.47,9.64 59.74,16 60,20 C60.26,24 61.41,29.06 57.41,27.82 C53.41,26.59 53.41,34.59 57.41,31.82 C61.41,29.06 60.78,36 60,40 C59.22,44 62.61,50.57 58.61,48.7 C54.61,46.82 54.61,54.82 58.61,52.7 C62.61,50.57 59.3,56 60,60 C60.7,64 58.74,69.84 62.74,68.38 C66.74,66.93 66.74,74.93 62.74,72.38 C58.74,69.84 60.65,76 60,80 C59.35,84 61.85,90.78 57.85,88.04 C53.85,85.3 53.85,93.3 57.85,92.04 C61.85,90.78 59.27,96 60,100 C60.73,104 58.26,109.74 62.26,108.44 C66.26,107.15 66.26,115.15 62.26,112.44 C58.26,109.74 59.28,116 60,120 C60.72,124 58.09,129.97 62.09,128.06 C66.09,126.16 66.09,134.16 62.09,132.06 C58.09,129.97 60.42,136 60,140 C59.58,144 61.42,148.88 57.42,147.38 C53.42,145.89 53.42,153.89 57.42,151.38 C61.42,148.88 59.36,156 60,160 C60.64,164 58.48,169.18 62.48,167.55 C66.48,165.92 66.48,173.92 62.48,171.55 C58.48,169.18 60.79,176 60,180 C59.21,184 62.03,190.33 58.03,188.78 C54.03,187.23 54.03,195.23 58.03,192.78 C62.03,190.33 60.3,196 60,200 M80,0 C80.16,4 81.83,9.46 77.83,7.38 C73.83,5.31 73.83,13.31 77.83,11.38 C81.83,9.46 79.68,16 80,20 C80.32,24 78.37,29.4 82.37,27.79 C86.37,26.19 86.37,34.19 82.37,31.79 C78.37,29.4 80.18,36 80,40 C79.82,44 77.75,50.69 81.75,48.77 C85.75,46.86 85.75,54.86 81.75,52.77 C77.75,50.69 79.78,56 80,60 C80.22,64 77.89,71.09 81.89,68.37 C85.89,65.64 85.89,73.64 81.89,72.37 C77.89,71.09 80.1,76 80,80 C79.9,84 81.39,90.22 77.39,88.06 C73.39,85.91 73.39,93.91 77.39,92.06 C81.39,90.22 79.35,96 80,100 C80.65,104 81.44,110.07 77.44,108.17 C73.44,106.26 73.44,114.26 77.44,112.17 C81.44,110.07 80.43,116 80,120 C79.57,124 82.68,131.27 78.68,128.52 C74.68,125.77 74.68,133.77 78.68,132.52 C82.68,131.27 80.72,136 80,140 C79.28,144 81.21,149.29 77.21,147.98 C73.21,146.68 73.21,154.68 77.21,151.98 C81.21,149.29 80.62,156 80,160 C79.38,164 78.34,171.09 82.34,168.72 C86.34,166.34 86.34,174.34 82.34,172.72 C78.34,171.09 80.62,176 80,180 C79.38,184 81.24,190.39 77.24,187.76 C73.24,185.14 73.24,193.14 77.24,191.76 C81.24,190.39 80.7,196 80,200 M100,0 C100.11,4 102.41,10.31 98.41,8.63 C94.41,6.95 94.41,14.95 98.41,12.63 C102.41,10.31 100.2,16 100,20 C99.8,24 102.48,29.55 98.48,28.33 C94.48,27.11 94.48,35.11 98.48,32.33 C102.48,29.55 99.56,36 100,40 C100.44,44 101.82,48.59 97.82,47.35 C93.82,46.12 93.82,54.12 97.82,51.35 C101.82,48.59 99.49,56 100,60 C100.51,64 101.39,70.38 97.39,68.61 C93.39,66.83 93.39,74.83 97.39,72.61 C101.39,70.38 99.67,76 100,80 C100.33,84 98.79,90.64 102.79,88.52 C106.79,86.4 106.79,94.4 102.79,92.52 C98.79,90.64 99.91,96 100,100 C100.09,104 101.66,110.05 97.66,108.72 C93.66,107.38 93.66,115.38 97.66,112.72 C101.66,110.05 99.22,116 100,120 C100.78,124 102.6,130.1 98.6,128.7 C94.6,127.3 94.6,135.3 98.6,132.7 C102.6,130.1 100.49,136 100,140 C99.51,144 98.21,149.62 102.21,147.61 C106.21,145.6 106.21,153.6 102.21,151.61 C98.21,149.62 99.91,156 100,160 C100.09,164 102.1,170.19 98.1,168.57 C94.1,166.94 94.1,174.94 98.1,172.57 C102.1,170.19 100.07,176 100,180 C99.93,184 102.55,190.66 98.55,187.94 C94.55,185.22 94.55,193.22 98.55,191.94 C102.55,190.66 100.44,196 100,200 M120,0 C120.28,4 118.62,10.27 122.62,7.94 C126.62,5.61 126.62,13.61 122.62,11.94 C118.62,10.27 120.33,16 120,20 C119.67,24 118.69,29.9 122.69,28.63 C126.69,27.35 126.69,35.35 122.69,32.63 C118.69,29.9 119.68,36 120,40 C120.32,44 122.73,50.22 118.73,48.56 C114.73,46.89 114.73,54.89 118.73,52.56 C122.73,50.22 119.31,56 120,60 C120.69,64 117.75,70.47 121.75,68.78 C125.75,67.09 125.75,75.09 121.75,72.78 C117.75,70.47 119.2,76 120,80 C120.8,84 122.58,89.41 118.58,88.08 C114.58,86.75 114.58,94.75 118.58,92.08 C122.58,89.41 119.61,96 120,100 C120.39,104 117.9,109.86 121.9,108 C125.9,106.14 125.9,114.14 121.9,112 C117.9,109.86 120.71,116 120,120 C119.29,124 117.57,129.71 121.57,127.95 C125.57,126.18 125.57,134.18 121.57,131.95 C117.57,129.71 119.28,136 120,140 C120.72,144 118.09,150.47 122.09,147.84 C126.09,145.2 126.09,153.2 122.09,151.84 C118.09,150.47 120,156 120,160 C120,164 118.31,169.81 122.31,168.22 C126.31,166.64 126.31,174.64 122.31,172.22 C118.31,169.81 120.37,176 120,180 C119.63,184 121.76,191.18 117.76,188.57 C113.76,185.96 113.76,193.96 117.76,192.57 C121.76,191.18 119.4,196 120,200 M140,0 C140.06,4 137.31,10.01 141.31,8.7 C145.31,7.39 145.31,15.39 141.31,12.7 C137.31,10.01 140.78,16 140,20 C139.22,24 141.3,29.32 137.3,27.25 C133.3,25.18 133.3,33.18 137.3,31.25 C141.3,29.32 140.3,36 140,40 C139.7,44 137.68,50.68 141.68,48.28 C145.68,45.89 145.68,53.89 141.68,52.28 C137.68,50.68 139.46,56 140,60 C140.54,64 141.79,69.36 137.79,67.49 C133.79,65.62 133.79,73.62 137.79,71.49 C141.79,69.36 139.2,76 140,80 C140.8,84 137.29,90.55 141.29,87.97 C145.29,85.39 145.29,93.39 141.29,91.97 C137.29,90.55 140.26,96 140,100 C139.74,104 142.37,109.39 138.37,107.76 C134.37,106.13 134.37,114.13 138.37,111.76 C142.37,109.39 140.37,116 140,120 C139.63,124 142.61,130.11 138.61,128.46 C134.61,126.81 134.61,134.81 138.61,132.46 C142.61,130.11 139.54,136 140,140 C140.46,144 142.62,149.56 138.62,147.79 C134.62,146.03 134.62,154.03 138.62,151.79 C142.62,149.56 139.92,156 140,160 C140.08,164 138.63,169.73 142.63,167.6 C146.63,165.46 146.63,173.46 142.63,171.6 C138.63,169.73 139.25,176 140,180 C140.75,184 141.34,189.18 137.34,187.86 C133.34,186.53 133.34,194.53 137.34,191.86 C141.34,189.18 139.52,196 140,200 M160,0 C159.59,4 161.96,10.39 157.96,7.61 C153.96,4.84 153.96,12.84 157.96,11.61 C161.96,10.39 159.45,16 160,20 C160.55,24 161.47,29.35 157.47,27.62 C153.47,25.89 153.47,33.89 157.47,31.62 C161.47,29.35 160.35,36 160,40 C159.65,44 161.69,50.86 157.69,48.29 C153.69,45.71 153.69,53.71 157.69,52.29 C161.69,50.86 159.64,56 160,60 C160.36,64 162.74,68.98 158.74,67.56 C154.74,66.14 154.74,74.14 158.74,71.56 C162.74,68.98 159.34,76 160,80 C160.66,84 158.36,90.6 162.36,88.39 C166.36,86.18 166.36,94.18 162.36,92.39 C158.36,90.6 159.42,96 160,100 C160.58,104 162.78,109.37 158.78,107.57 C154.78,105.78 154.78,113.78 158.78,111.57 C162.78,109.37 159.57,116 160,120 C160.43,124 157.76,130.37 161.76,128.69 C165.76,127 165.76,135 161.76,132.69 C157.76,130.37 159.23,136 160,140 C160.77,144 161.54,148.96 157.54,147.59 C153.54,146.21 153.54,154.21 157.54,151.59 C161.54,148.96 160.15,156 160,160 C159.85,164 161.78,169.71 157.78,167.32 C153.78,164.93 153.78,172.93 157.78,171.32 C161.78,169.71 160.14,176 160,180 C159.86,184 161.77,190.09 157.77,188.21 C153.77,186.34 153.77,194.34 157.77,192.21 C161.77,190.09 159.67,196 160,200 M180,0 C179.92,4 177.24,10.08 181.24,8.41 C185.24,6.74 185.24,14.74 181.24,12.41 C177.24,10.08 179.24,16 180,20 C180.76,24 181.89,29.58 177.89,27.5 C173.89,25.43 173.89,33.43 177.89,31.5 C181.89,29.58 180.32,36 180,40 C179.68,44 182.56,50.76 178.56,48.31 C174.56,45.86 174.56,53.86 178.56,52.31 C182.56,50.76 180.5,56 180,60 C179.5,64 182.75,69.91 178.75,68.48 C174.75,67.05 174.75,75.05 178.75,72.48 C182.75,69.91 179.96,76 180,80 C180.04,84 178.7,88.7 182.7,87.3 C186.7,85.9 186.7,93.9 182.7,91.3 C178.7,88.7 179.96,96 180,100 C180.04,104 181.27,110.15 177.27,107.79 C173.27,105.44 173.27,113.44 177.27,111.79 C181.27,110.15 180.53,116 180,120 C179.47,124 178.57,128.79 182.57,127.4 C186.57,126 186.57,134 182.57,131.4 C178.57,128.79 180.04,136 180,140 C179.96,144 182.76,150.53 178.76,148.7 C174.76,146.87 174.76,154.87 178.76,152.7 C182.76,150.53 180.32,156 180,160 C179.68,164 178.58,168.82 182.58,167.37 C186.58,165.92 186.58,173.92 182.58,171.37 C178.58,168.82 180.55,176 180,180 C179.45,184 178.25,189.96 182.25,187.63 C186.25,185.29 186.25,193.29 182.25,191.63 C178.25,189.96 180.71,196 180,200 M200,0 C200.53,4 197.52,9.19 201.52,7.37 C205.52,5.55 205.52,13.55 201.52,11.37 C197.52,9.19 199.97,16 200,20 C200.03,24 197.69,30.56 201.69,28.61 C205.69,26.66 205.69,34.66 201.69,32.61 C197.69,30.56 200.64,36 200,40 C199.36,44 198.41,49.41 202.41,48.12 C206.41,46.84 206.41,54.84 202.41,52.12 C198.41,49.41 200.36,56 200,60 C199.64,64 198.49,70.07 202.49,67.93 C206.49,65.79 206.49,73.79 202.49,71.93 C198.49,70.07 199.75,76 200,80 C200.25,84 197.57,89.13 201.57,87.92 C205.57,86.71 205.57,94.71 201.57,91.92 C197.57,89.13 199.85,96 200,100 C200.15,104 201.39,109.68 197.39,108.11 C193.39,106.54 193.39,114.54 197.39,112.11 C201.39,109.68 200.41,116 200,120 C199.59,124 201.44,130.99 197.44,128.44 C193.44,125.89 193.44,133.89 197.44,132.44 C201.44,130.99 200.06,136 200,140 C199.94,144 202.67,150.06 198.67,147.73 C194.67,145.4 194.67,153.4 198.67,151.73 C202.67,150.06 200.35,156 200,160 C199.65,164 197.4,169.85 201.4,168.59 C205.4,167.32 205.4,175.32 201.4,172.59 C197.4,169.85 200.35,176 200,180 C199.65,184 202.21,189.54 198.21,187.59 C194.21,185.64 194.21,193.64 198.21,191.59 C202.21,189.54 199.39,196 200,200 M220,0 C220.31,4 217.39,9.84 221.39,7.55 C225.39,5.26 225.39,13.26 221.39,11.55 C217.39,9.84 220.45,16 220,20 C219.55,24 217.78,29.26 221.78,27.61 C225.78,25.97 225.78,33.97 221.78,31.61 C217.78,29.26 220.32,36 220,40 C219.68,44 221.44,49.79 217.44,48.51 C213.44,47.22 213.44,55.22 217.44,52.51 C221.44,49.79 220.15,56 220,60 C219.85,64 222.35,69.75 218.35,67.9 C214.35,66.06 214.35,74.06 218.35,71.9 C222.35,69.75 220.34,76 220,80 C219.66,84 218.19,90.47 222.19,88.73 C226.19,87 226.19,95 222.19,92.73 C218.19,90.47 220.69,96 220,100 C219.31,104 217.59,108.89 221.59,107.32 C225.59,105.75 225.59,113.75 221.59,111.32 C217.59,108.89 220.76,116 220,120 C219.24,124 222.48,129.7 218.48,127.74 C214.48,125.79 214.48,133.79 218.48,131.74 C222.48,129.7 220.3,136 220,140 C219.7,144 221.98,150.44 217.98,148.51 C213.98,146.58 213.98,154.58 217.98,152.51 C221.98,150.44 220.43,156 220,160 C219.57,164 217.41,170.38 221.41,168.61 C225.41,166.84 225.41,174.84 221.41,172.61 C217.41,170.38 219.89,176 220,180 C220.11,184 218.6,190.4 222.6,188.03 C226.6,185.65 226.6,193.65 222.6,192.03 C218.6,190.4 220.63,196 220,200 M240,0 C240.08,4 238.57,10.48 242.57,8.31 C246.57,6.13 246.57,14.13 242.57,12.31 C238.57,10.48 240.77,16 240,20 C239.23,24 238.27,30.04 242.27,28.11 C246.27,26.18 246.27,34.18 242.27,32.11 C238.27,30.04 240.38,36 240,40 C239.62,44 241.93,50.73 237.93,48.42 C233.93,46.11 233.93,54.11 237.93,52.42 C241.93,50.73 239.55,56 240,60 C240.45,64 242.24,70.41 238.24,68.58 C234.24,66.74 234.24,74.74 238.24,72.58 C242.24,70.41 239.62,76 240,80 C240.38,84 242.2,89.2 238.2,87.85 C234.2,86.49 234.2,94.49 238.2,91.85 C242.2,89.2 239.86,96 240,100 C240.14,104 242.39,110.15 238.39,107.58 C234.39,105 234.39,113 238.39,111.58 C242.39,110.15 240.68,116 240,120 C239.32,124 241.52,130.19 237.52,128.42 C233.52,126.65 233.52,134.65 237.52,132.42 C241.52,130.19 239.4,136 240,140 C240.6,144 242.09,149.01 238.09,147.81 C234.09,146.6 234.09,154.6 238.09,151.81 C242.09,149.01 239.85,156 240,160 C240.15,164 241.7,171.39 237.7,168.65 C233.7,165.9 233.7,173.9 237.7,172.65 C241.7,171.39 239.65,176 240,180 C240.35,184 241.67,191.2 237.67,188.57 C233.67,185.95 233.67,193.95 237.67,192.57 C241.67,191.2 240.42,196 240,200 M260,0 C260.3,4 258.44,8.87 262.44,7.44 C266.44,6.02 266.44,14.02 262.44,11.44 C258.44,8.87 259.77,16 260,20 C260.23,24 257.58,29.76 261.58,27.98 C265.58,26.2 265.58,34.2 261.58,31.98 C257.58,29.76 259.89,36 260,40 C260.11,44 258.52,50.37 262.52,48.67 C266.52,46.96 266.52,54.96 262.52,52.67 C258.52,50.37 260.21,56 260,60 C259.79,64 257.88,69.82 261.88,68.36 C265.88,66.89 265.88,74.89 261.88,72.36 C257.88,69.82 260.1,76 260,80 C259.9,84 257.44,90.29 261.44,87.56 C265.44,84.82 265.44,92.82 261.44,91.56 C257.44,90.29 260.41,96 260,100 C259.59,104 261.65,110.05 257.65,107.32 C253.65,104.58 253.65,112.58 257.65,111.32 C261.65,110.05 259.44,116 260,120 C260.56,124 257.48,129.13 261.48,127.86 C265.48,126.59 265.48,134.59 261.48,131.86 C257.48,129.13 259.78,136 260,140 C260.22,144 262.35,150.07 258.35,147.51 C254.35,144.95 254.35,152.95 258.35,151.51 C262.35,150.07 259.27,156 260,160 C260.73,164 262.73,168.68 258.73,167.41 C254.73,166.14 254.73,174.14 258.73,171.41 C262.73,168.68 260.8,176 260,180 C259.2,184 261.23,189.56 257.23,187.22 C253.23,184.87 253.23,192.87 257.23,191.22 C261.23,189.56 260.61,196 260,200 M280,0 C279.87,4 281.81,9.51 277.81,8.06 C273.81,6.6 273.81,14.6 277.81,12.06 C281.81,9.51 279.35,16 280,20 C280.65,24 281.55,29.39 277.55,27.39 C273.55,25.39 273.55,33.39 277.55,31.39 C281.55,29.39 279.39,36 280,40 C280.61,44 278.68,51.02 282.68,48.58 C286.68,46.15 286.68,54.15 282.68,52.58 C278.68,51.02 279.64,56 280,60 C280.36,64 278.28,70.5 282.28,68.47 C286.28,66.45 286.28,74.45 282.28,72.47 C278.28,70.5 280.55,76 280,80 C279.45,84 282.3,89.92 278.3,88.29 C274.3,86.67 274.3,94.67 278.3,92.29 C282.3,89.92 279.32,96 280,100 C280.68,104 278.5,108.47 282.5,107.23 C286.5,106 286.5,114 282.5,111.23 C278.5,108.47 280.29,116 280,120 C279.71,124 278.68,128.95 282.68,127.22 C286.68,125.48 286.68,133.48 282.68,131.22 C278.68,128.95 279.89,136 280,140 C280.11,144 278.16,151.23 282.16,148.72 C286.16,146.2 286.16,154.2 282.16,152.72 C278.16,151.23 280.12,156 280,160 C279.88,164 277.9,170.33 281.9,168.09 C285.9,165.86 285.9,173.86 281.9,172.09 C277.9,170.33 280.7,176 280,180 C279.3,184 281.31,189.27 277.31,187.47 C273.31,185.67 273.31,193.67 277.31,191.47 C281.31,189.27 279.65,196 280,200 M0,0 L300,0 L300,200 L0,200 L0,0 "></path></svg>