 
<svg xmlns="http://www.w3.org/2000/svg" version="1.0" width="288mm" height="288mm" viewBox="0 0 288 288"><path fill="none" stroke="DarkBlue" stroke-width="0.2" d="M 76.5 53.067332602633954 C 78.49597183355452 54.80636039914775 81.15367670751826 57.24123742510512 81.49773368731431 53.389878815006945 C 81.84179066711037 49.538520204908764 87.91679066711036 53.04592309023574 84.5352336873143 55.14358025767043 C 81.15367670751826 57.24123742510512 85.20524073761071 58.77402304380037 87.75 59.562523131017244 C 90.089769318537 58.41897004600749 94.65109879216185 58.118628981593005 91.45025203356614 55.91663871930299 C 88.24940527497043 53.714648457012956 94.32440527497042 50.20724557168598 94.48775203356614 54.1629372766395 C 94.65109879216185 58.118628981593005 96.92194942446805 54.66419584782152 99 53.067332602633954 C 101.24269175755109 54.37902895554616 104.56658702807003 54.8155094858758 101.6942303406981 57.207153579212985 C 98.82187365332616 59.59879767255017 104.89687365332615 63.10620055787715 104.73173034069809 58.96085502187647 C 104.56658702807003 54.8155094858758 108.2893613096207 57.76229653533285 110.25 59.562523131017244 C 112.26787876684952 57.86143925600841 115.78902279797883 57.89515245307633 112.76584665525137 55.590584012887696 C 109.7426705125239 53.28601557269906 115.81767051252389 49.77861268737208 115.80334665525136 53.836882570224205 C 115.78902279797883 57.89515245307633 119.51871070637561 54.83179130429089 121.5 53.067332602633954 C 124.07094827385203 53.810471991397364 127.22879170541763 58.45282232917761 126.91372267500311 54.220917139654475 C 126.5986536445886 49.989011950131335 132.6736536445886 53.49641483545831 129.95122267500312 55.97461858231796 C 127.22879170541763 58.45282232917761 130.56274671399936 58.154804528685716 132.75 59.562523131017244 C 135.0699260688133 58.38460052929874 139.47436818786957 57.56796022087465 136.28019842593636 55.36211499276415 C 133.0860286640032 53.15626976465364 139.1610286640032 49.64886687932667 139.31769842593638 53.608413550100664 C 139.47436818786957 57.56796022087465 141.878710489785 54.58930381608529 144 53.067332602633954 C 146.14486018154747 54.54847821576898 149.10194392358838 58.48997656426734 149.24846880606597 54.52457274460876 C 149.39499368854356 50.55916892495018 155.46999368854355 54.06657181027715 152.285968806066 56.27827418727225 C 149.10194392358838 58.48997656426734 152.72804909866153 58.73451780362298 155.25 59.562523131017244 C 157.80079003270623 58.7844686443981 161.36525441095804 58.05400405902158 158.03912669763483 55.924344789667806 C 154.71299898431167 53.794685520314026 160.78799898431166 50.28728263498705 161.07662669763485 54.17064334700432 C 161.36525441095804 58.05400405902158 164.043779052366 54.00918554942352 166.5 53.067332602633954 C 168.73675690227412 54.38930842642144 173.66295254240342 54.728099623286 170.03337720584167 56.68256332567805 C 166.40380186927996 58.63702702807012 172.47880186927995 62.1444299133971 173.0708772058417 58.436264768341545 C 173.66295254240342 54.728099623286 175.21778946876074 58.75228800387801 177.75 59.562523131017244 C 180.27940353234789 58.747426139181314 182.37729622436055 54.94370065175674 182.29175728597775 59.04308658085824 C 182.20621834759496 63.14247250995974 188.28121834759497 59.63506962463276 185.32925728597775 57.289385138194746 C 182.37729622436055 54.94370065175674 186.78085499510945 54.41981312750745 189 53.067332602633954 C 191.0544734740358 54.70503258550802 196.4577967583279 55.35598905758791 192.67708558068904 57.2231944414499 C 188.89637440305023 59.090399825311884 194.97137440305022 62.59780271063886 195.71458558068906 58.97689588411338 C 196.4577967583279 55.35598905758791 198.06066097348076 58.158417137235304 200.25 59.562523131017244 C 202.25746788727855 57.84340708364 205.77008192396596 54.669649693632905 205.61404456300778 58.80973790598574 C 205.45800720204963 62.949826118338585 211.53300720204962 59.44242323301161 208.6515445630078 57.05603646332225 C 205.77008192396596 54.669649693632905 209.5703792547756 54.92128385527296 211.5 53.067332602633954 M 65.25 72.55290418778381 C 67.3350919554754 74.13757140515389 69.96122369577498 76.74296053841839 70.20687257306683 72.83478598384896 C 70.45252145035867 68.92661142927953 76.52752145035866 72.4340143146065 73.24437257306683 74.58848742651244 C 69.96122369577498 76.74296053841839 74.0524507790657 78.09122189814431 76.5 79.0480947161671 C 79.02547700380482 78.22619677739723 82.0372755044996 73.79182959307644 81.90229377730762 77.9197613296064 C 81.76731205011563 82.04769306613639 87.84231205011562 78.54029018080941 84.93979377730761 76.16605988694292 C 82.0372755044996 73.79182959307644 85.78861877206411 74.35184467069365 87.75 72.55290418778381 C 89.92062711785547 73.98942015807796 92.32675349618908 76.70093108891813 92.8927995352934 72.97773792196872 C 93.45884557439774 69.25454475501932 99.53384557439773 72.76194764034629 95.9302995352934 74.73143936463221 C 92.32675349618908 76.70093108891813 96.44341314524173 78.28008061986449 99 79.0480947161671 C 101.19079836689637 77.6465163740639 104.07864669287517 74.84055529341384 104.32187362968153 78.75012815597451 C 104.5651005664879 82.65970101853519 110.64010056648789 79.15229813320822 107.35937362968153 76.99642671331102 C 104.07864669287517 74.84055529341384 107.71834415783654 73.36410006458476 110.25 72.55290418778381 C 112.70303169723533 73.50028107830192 116.21548057101536 73.27361642094262 113.32097836353452 75.65247479228358 C 110.42647615605368 78.03133316362455 116.50147615605367 81.53873604895153 116.35847836353452 77.40617623494707 C 116.21548057101536 73.27361642094262 119.39688521637484 77.49464395284846 121.5 79.0480947161671 C 123.80267783781713 77.84029730202259 125.80644692067405 74.63780533442947 126.29922205636122 78.40330147719052 C 126.79199719204838 82.16879761995159 132.8669971920484 78.66139473462462 129.33672205636122 76.64960003452704 C 125.80644692067405 74.63780533442947 130.3535957235063 73.59836264812799 132.75 72.55290418778381 C 134.80394072540213 74.1915269183591 136.20164945074 77.26881168633747 136.95281469091435 73.65249713995804 C 137.70397993108875 70.0361825935786 143.77897993108874 73.54358547890557 139.99031469091437 75.40619858262153 C 136.20164945074 77.26881168633747 141.960344780341 77.38472876383295 144 79.0480947161671 C 146.25311847443785 77.75445796665892 150.1444352987397 76.9845011584806 146.64029724826034 74.95761620520246 C 143.13615919778104 72.9307312519243 149.21115919778103 69.42332836659733 149.67779724826036 73.20391476253897 C 150.1444352987397 76.9845011584806 152.74009328100934 73.40177065094014 155.25 72.55290418778381 C 157.58105193826802 73.71155621832833 160.81908903402612 74.26929579221657 157.96360613245426 76.67068197032766 C 155.10812323088234 79.07206814843876 161.18312323088236 82.57947103376574 161.00110613245425 78.42438341299115 C 160.81908903402612 74.26929579221657 164.38982750503493 77.50686826747436 166.5 79.0480947161671 C 168.8549521610354 77.93083908576793 172.1071064329091 73.83460267533182 171.87037643303518 78.02127880448425 C 171.63364643316132 82.20795493363671 177.7086464331613 78.70055204830975 174.9078764330352 76.26757736182077 C 172.1071064329091 73.83460267533182 175.47834159444912 73.81442883463541 177.75 72.55290418778381 C 179.87961055751433 74.06046292454056 185.07426219012444 74.88101434921235 181.35865783657783 76.78580917549007 C 177.64305348303125 78.69060400176781 183.71805348303124 82.19800688709479 184.39615783657786 78.53951061815356 C 185.07426219012444 74.88101434921235 186.7322324089808 77.7798309808638 189 79.0480947161671 C 191.5580281532642 78.28257702210564 193.9744447152464 74.69187207265959 194.69222509846261 78.32746137519067 C 195.41000548167887 81.96305067772175 201.48500548167885 78.45564779239479 197.72972509846264 76.57375993252718 C 193.9744447152464 74.69187207265959 198.0516086708742 73.9413311335257 200.25 72.55290418778381 C 202.36645037719435 74.08325702549149 206.4715600533073 74.74767418501416 202.97299086589103 76.77777432288086 C 199.4744216784748 78.80787446074758 205.5494216784748 82.31527734607455 206.01049086589106 78.53147576554436 C 206.4715600533073 74.74767418501416 209.3337221902297 77.60404552329166 211.5 79.0480947161671 C 213.94104348856015 78.07995363913184 218.520549963665 77.54042503149438 215.5114041652842 75.22775616822037 C 212.50225836690342 72.91508730494634 218.5772583669034 69.40768441961937 218.54890416528423 73.47405472555688 C 218.520549963665 77.54042503149438 220.29700604508017 73.50034644990996 222.75 72.55290418778381 M 54 92.03847577293368 C 56.1700169758647 93.47604854015569 58.8485824765648 96.22214064686479 58.79500092665434 92.14120532460039 C 58.74141937674388 88.06027000233598 64.81641937674388 91.56767288766297 61.83250092665433 93.89490676726388 C 58.8485824765648 96.22214064686479 62.95267097413701 97.31660447310776 65.25 98.53366630131697 C 67.47572176631846 97.19257706138586 72.53353444189048 96.95718361976738 68.77975743728152 95.0744277838562 C 65.02598043267257 93.191671947945 71.10098043267256 89.68426906261801 71.81725743728151 93.32072634119271 C 72.53353444189048 96.95718361976738 74.5398488478078 93.83954680952874 76.5 92.03847577293368 C 78.955340232607 92.98185416289701 80.66379344965546 96.71908928465427 80.84612752784412 92.77435991377894 C 81.02846160603279 88.8296305429036 87.10346160603278 92.33703342823057 83.88362752784411 94.52806135644242 C 80.66379344965546 96.71908928465427 85.50343926785392 97.2286712089765 87.75 98.53366630131697 C 90.29205972051707 97.74049047042024 93.28966397611525 93.26732406050954 93.09160944114154 97.43167089959083 C 92.89355490616782 101.59601773867215 98.96855490616781 98.08861485334516 96.12910944114154 95.67796945692734 C 93.28966397611525 93.26732406050954 96.61397364768561 93.10190932523355 99 92.03847577293368 C 101.47932888731923 92.9403045941302 105.46059326108274 94.39850237594938 101.7905198187134 96.32958448605174 C 98.12044637634408 98.26066659615412 104.19544637634407 101.76806948148109 104.8280198187134 98.08328592871523 C 105.46059326108274 94.39850237594938 107.7405968125074 97.6839276960228 110.25 98.53366630131697 C 112.56357509203961 97.3447434851488 115.25533526795508 94.18065599609572 115.8253585343222 97.90155290981431 C 116.39538180068932 101.62244982353292 122.47038180068931 98.11504693820595 118.8628585343222 96.14785146715083 C 115.25533526795508 94.18065599609572 119.2528812812207 93.34250440407547 121.5 92.03847577293368 C 123.5751558468553 93.64035283526331 126.10148946747003 96.961789288106 126.76294517512892 93.29368091897989 C 127.42440088278781 89.62557254985376 133.4994008827878 93.13297543518073 129.8004451751289 95.04738236164337 C 126.10148946747003 96.961789288106 130.31760069603172 97.55055305737858 132.75 98.53366630131697 C 135.02365337942132 97.27559705056876 138.67810092527662 97.25483665100784 135.5285503437344 95.02323052708759 C 132.37899976219217 92.79162440316733 138.45399976219215 89.28422151784036 138.56605034373442 93.26952908442411 C 138.67810092527662 97.25483665100784 141.9156391387812 93.6244092827013 144 92.03847577293368 C 145.968823034981 93.82452666794129 151.18636401510105 94.66650619921033 147.40854755888859 96.53538285126707 C 143.63073110267618 98.40425950332383 149.70573110267617 101.91166238865081 150.4460475588886 98.28908429393056 C 151.18636401510105 94.66650619921033 153.11037797171002 97.04344794060216 155.25 98.53366630131697 C 157.50402862141536 97.24160597261618 159.4138224067502 93.5447102299364 159.78211604521616 97.38207579862724 C 160.15040968368214 101.21944136731811 166.22540968368213 97.71203848199113 162.81961604521618 95.62837435596376 C 159.4138224067502 93.5447102299364 164.53403389133396 93.82947500947225 166.5 92.03847577293368 C 168.59194624524372 93.61127101217525 171.29340720661827 97.06027957031098 171.57496533134105 93.17283722941221 C 171.85652345606385 89.28539488851342 177.93152345606384 92.7927977738404 174.61246533134107 94.92653867207571 C 171.29340720661827 97.06027957031098 175.42348575706194 97.3671547519117 177.75 98.53366630131697 C 179.9888850490202 97.2153765358197 182.4493532232741 94.39963671818991 182.75159400916397 98.27513791909631 C 183.05383479505383 102.15063912000272 189.12883479505382 98.64323623467574 185.789094009164 96.52143647643281 C 182.4493532232741 94.39963671818991 187.0523929300878 93.86127379737204 189 92.03847577293368 C 191.08746965495553 93.61902469399908 193.18563457009108 97.04578761167369 193.44215604283474 93.14389035301515 C 193.6986775155784 89.24199309435662 199.7736775155784 92.74939597968358 196.47965604283476 94.89759179567865 C 193.18563457009108 97.04578761167369 198.1995604661855 96.88897932902489 200.25 98.53366630131697 C 202.64057496993394 97.47811118583837 207.1288736630253 97.08820877199952 204.2489294478244 94.70094533989686 C 201.36898523262354 92.31368190779419 207.44398523262353 88.80627902246722 207.28642944782442 92.94724389723338 C 207.1288736630253 97.08820877199952 209.1117599831095 93.09807514571682 211.5 92.03847577293368 C 213.85071971342606 93.16306221763264 217.50904374594668 94.22071823768485 213.85667579760005 96.16202261952736 C 210.20430784925347 98.10332700136989 216.27930784925346 101.61072988669686 216.89417579760007 97.91572406219085 C 217.50904374594668 94.22071823768485 220.82195928740572 96.67697835188494 222.75 98.53366630131697 C 225.06221523735093 97.3423881477371 229.58949534672138 96.80998378512699 226.16411022445118 94.73763080754782 C 222.73872510218104 92.66527782996863 228.81372510218102 89.15787494464166 229.2016102244512 92.98392936488433 C 229.58949534672138 96.80998378512699 231.52260318634225 92.94365104387586 234 92.03847577293368 M 42.75 111.52404735808355 C 45.29934428149301 112.3046059592591 49.326172989131415 112.81869315307117 46.26788163019714 115.10298781373015 C 43.209590271262854 117.38728247438915 49.28459027126286 120.89468535971614 49.30538163019713 116.85668925639364 C 49.326172989131415 112.81869315307117 51.8982703802388 116.46338794895902 54 118.01923788646684 C 56.221967102057896 116.67164537727106 59.90106003030595 112.95900286982474 59.61035033844026 117.17684418867942 C 59.31964064657458 121.39468550753412 65.39464064657457 117.88728262220714 62.64785033844026 115.42314274601594 C 59.90106003030595 112.95900286982474 63.13720523581987 113.0607319032647 65.25 111.52404735808355 C 67.55630926356925 112.72555495832148 71.54231220462455 112.5492906853791 68.51145116640821 114.84942224908855 C 65.48059012819188 117.149553812798 71.55559012819187 120.65695669812499 71.5489511664082 116.60312369175203 C 71.54231220462455 112.5492906853791 74.02932166148722 117.10242587522421 76.5 118.01923788646684 C 79.02806551579945 117.20182338198768 82.38987172163442 116.10720322109475 79.24729178838015 113.87157259150902 C 76.10471185512588 111.6359419619233 82.17971185512587 108.12853907659631 82.28479178838015 112.11787114884554 C 82.38987172163442 116.10720322109475 85.70242846554542 113.1737018509831 87.75 111.52404735808355 C 89.98089169401318 112.85618202057594 94.46623880494059 112.92742691807256 90.8423111680124 114.88515132136834 C 87.21838353108421 116.84287572466411 93.2933835310842 120.3502786099911 93.8798111680124 116.63885276403182 C 94.46623880494059 112.92742691807256 96.94684458058414 116.37925496602386 99 118.01923788646684 C 101.33697959689151 116.87085286182813 105.51026295651421 116.3188512208739 102.26956873384326 114.13986690269424 C 99.02887451117229 111.96088258451458 105.10387451117228 108.4534796991876 105.30706873384325 112.38616546003075 C 105.51026295651421 116.3188512208739 108.06314577104557 112.93245714749423 110.25 111.52404735808355 C 112.71083911947888 112.45790139659971 116.99068627185731 113.18022620893684 113.44525385761415 115.18326985017993 C 109.899821443371 117.18631349142302 115.97482144337098 120.69371637674999 116.48275385761414 116.93697129284341 C 116.99068627185731 113.18022620893684 119.10856725437299 116.96516848207014 121.5 118.01923788646684 C 123.8367852451846 116.87051623479724 126.13895299341365 112.85150085362125 126.46010200841512 116.71608538336017 C 126.78125102341657 120.58066991309911 132.85625102341655 117.07326702777213 129.49760200841513 114.96238394069668 C 126.13895299341365 112.85150085362125 130.21137959856944 112.32318026438156 132.75 111.52404735808355 C 134.87443359479198 113.04057285730426 137.96221619764634 116.00329927396005 138.25115227029417 112.12011659328188 C 138.540088342942 108.23693391260369 144.615088342942 111.74433679793067 141.2886522702942 113.87381803594538 C 137.96221619764634 116.00329927396005 142.03626126674777 116.224380722544 144 118.01923788646684 C 145.98666619829052 116.26409225687908 148.9749201946277 113.21045886735646 149.06905298966961 117.20611127279945 C 149.16318578471152 121.20176367824244 155.2381857847115 117.69436079291546 152.10655298966964 115.45240983013596 C 148.9749201946277 113.21045886735646 152.75891844219439 112.40551995687304 155.25 111.52404735808355 C 157.82257170464447 112.26437488223189 161.71606552405854 112.8806916826067 158.22887855944816 114.91736334987434 C 154.74169159483782 116.954035017142 160.8166915948378 120.46143790246899 161.26637855944819 116.67106479253783 C 161.71606552405854 112.8806916826067 164.14002007366648 116.91069060101253 166.5 118.01923788646684 C 168.53621901033523 116.34992024499846 173.3234664920299 116.7558291020912 170.34144362083651 114.42750080950434 C 167.35942074964314 112.09917251691745 173.43442074964312 108.59176963159047 173.37894362083654 112.67379936684084 C 173.3234664920299 116.7558291020912 175.6949883182827 113.16081513790826 177.75 111.52404735808355 C 180.10064426157135 112.64876448922837 184.202478839371 112.97895004895035 180.62408265029 114.96296204591732 C 177.04568646120907 116.9469740428843 183.12068646120906 120.45437692821127 183.66158265029003 116.7166634885808 C 184.202478839371 112.97895004895035 186.70774125734656 116.79339407012995 189 118.01923788646684 C 191.11865072274838 116.49269615905294 194.39545108053588 116.20669982496726 191.58841706158265 113.77734167143434 C 188.78138304262944 111.34798351790141 194.85638304262943 107.84058063257443 194.62591706158267 112.02364022877086 C 194.39545108053588 116.20669982496726 198.2822254677307 113.31191431305967 200.25 111.52404735808355 C 202.80971830721396 112.28663761963139 205.73889950107142 117.10778482979379 205.42481371317572 112.87644731560358 C 205.11072792528006 108.64510980141335 211.18572792528005 112.15251268674034 208.46231371317575 114.63014875826707 C 205.73889950107142 117.10778482979379 209.41150628991704 116.4404626809119 211.5 118.01923788646684 C 214.00790026747785 117.16689614734744 218.21706258878837 116.48562764689233 214.5794070230755 114.53582906697577 C 210.9417514573627 112.58603048705922 217.0167514573627 109.07862760173224 217.61690702307553 112.78212762431227 C 218.21706258878837 116.48562764689233 220.7240390473748 113.21113247669268 222.75 111.52404735808355 C 224.80644051161397 113.15834033193187 228.72637305115992 113.02442556020328 225.91638212783798 115.45207654420295 C 223.1063912045161 117.87972752820265 229.18139120451607 121.38713041352962 228.953882127838 117.20577798686645 C 228.72637305115992 113.02442556020328 231.54693549332052 117.07191782357293 234 118.01923788646684 C 236.2417529510372 116.70591547297411 239.5612062115225 112.69289452140876 239.38228060255852 116.846197269909 C 239.20335499359462 120.99950001840925 245.2783549935946 117.49209713308228 242.41978060255855 115.09249582724551 C 239.5612062115225 112.69289452140876 243.0362695747335 112.88590620996752 245.25 111.52404735808355 M 31.5 131.00961894323342 C 33.66479415141391 132.4562379077632 38.57418506247879 132.44003791317996 35.250421204168894 134.57106195486202 C 31.926657345859 136.70208599654404 38.001657345859 140.20948888187104 38.28792120416889 136.32476339752552 C 38.57418506247879 132.44003791317996 40.53851295462551 136.13906497177908 42.75 137.5048094716167 C 45.177984368542134 136.51404933520809 49.70312699343828 135.31668076571992 46.06130745115274 133.3692862587985 C 42.419487908867204 131.4218917518771 48.49448790886721 127.91448886655013 49.09880745115274 131.61558481613503 C 49.70312699343828 135.31668076571992 51.645629406381325 132.1278818779464 54 131.00961894323342 C 56.215082887415164 132.36913526196062 60.539259342350654 133.3561536893027 56.822864843078065 135.26049232473284 C 53.10647034380547 137.16483096016296 59.18147034380547 140.67223384548993 59.86036484307806 137.0141937673963 C 60.539259342350654 133.3561536893027 63.019388529480686 136.17218944779546 65.25 137.5048094716167 C 67.51591472231858 136.2333364735842 71.51933762979294 136.45720488761432 68.46678463349006 134.16959718174536 C 65.4142316371872 131.88198947587642 71.48923163718719 128.37458659054943 71.50428463349006 132.41589573908186 C 71.51933762979294 136.45720488761432 74.10501757926315 132.05754012998952 76.5 131.00961894323342 C 78.63434216079612 132.50898230270482 83.29623278870025 132.60887386678962 80.3150411896557 134.93768209457542 C 77.33384959061117 137.2664903223612 83.40884959061115 140.77389320768816 83.3525411896557 136.6913835372389 C 83.29623278870025 132.60887386678962 85.65056579539684 135.94498375843068 87.75 137.5048094716167 C 90.13682080391541 136.44275194985397 95.14842085546547 135.58377395300988 91.63896397403838 133.5599598282112 C 88.12950709261128 131.53614570341253 94.20450709261127 128.02874281808556 94.67646397403837 131.80625838554772 C 95.14842085546547 135.58377395300988 96.99000015573134 132.7243495124612 99 131.00961894323342 C 101.03347329977947 132.68369229488727 103.21213084918199 136.00620338741635 103.45682934533838 132.09748013004253 C 103.70152784149478 128.1887568726687 109.77652784149477 131.6961597579957 106.49432934533837 133.851181572706 C 103.21213084918199 136.00620338741635 107.80192903498431 136.54884034085143 110.25 137.5048094716167 C 112.20735930680432 135.69890281696297 117.29182833117947 135.17922685312982 113.59460821874626 133.26381788029641 C 109.89738810631306 131.348408907463 115.97238810631305 127.84100602213604 116.63210821874625 131.51011643763292 C 117.29182833117947 135.17922685312982 118.93857180429141 131.7692475910333 121.5 131.00961894323342 C 123.86486820809147 132.10969947632125 125.89267493039453 135.98538231350696 126.01042374558772 132.0033646236555 C 126.1281725607809 128.02134693380407 132.2031725607809 131.52874981913104 129.04792374558772 133.757066066319 C 125.89267493039453 135.98538231350696 130.22874268527545 136.67560281696768 132.75 137.5048094716167 C 134.9189916200033 136.06546073594694 137.43699547423242 132.6096843865306 137.4282667471589 136.6647239194562 C 137.4195380200854 140.71976345238176 143.4945380200854 137.2123605670548 140.4657667471589 134.9110224767927 C 137.43699547423242 132.6096843865306 142.07240462858383 132.86707824621263 144 131.00961894323342 C 146.12825724150585 132.51952169207553 150.96913930718694 133.072516411563 147.63224174592136 135.19595770630815 C 144.29534418465585 137.31939900105326 150.37034418465583 140.82680188638025 150.66974174592139 136.94965914897165 C 150.96913930718694 133.072516411563 153.2041742678885 135.85213116035897 155.25 137.5048094716167 C 157.7365397933217 136.61547030598507 161.58345577110018 135.21023621787862 158.3934213573019 133.0020034454092 C 155.2033869435036 130.79377067293984 161.2783869435036 127.28636778761285 161.4309213573019 131.24830200274573 C 161.58345577110018 135.21023621787862 164.16874457151832 132.16791851838903 166.5 131.00961894323342 C 168.6237946790276 132.52725107701977 171.92320588159586 136.54173877027614 171.79519606450103 132.41783226791753 C 171.66718624740625 128.29392576555892 177.74218624740624 131.80132865088592 174.83269606450105 134.17153371058103 C 171.92320588159586 136.54173877027614 175.40903351416355 136.36332994119476 177.75 137.5048094716167 C 179.74692845184188 135.76743858658006 183.9930040609841 135.7567884614192 180.79630215451965 133.5524051676354 C 177.59960024805525 131.34802187385165 183.67460024805524 127.84061898852468 183.83380215451967 131.79870372497192 C 183.9930040609841 135.7567884614192 187.04797910456682 132.82477199761368 189 131.00961894323342 C 191.13098261175907 132.5148012123275 193.2233161093394 135.5376746103698 193.75515413790163 131.79473143932546 C 194.28699216646385 128.05178826828114 200.36199216646384 131.5591911536081 196.79265413790165 133.54843288198896 C 193.2233161093394 135.5376746103698 198.19015214763849 135.87641818506188 200.25 137.5048094716167 C 202.54046558636605 136.2758598174841 204.8037368441966 133.29550696624037 205.44409736632747 136.9757946464097 C 206.0844578884584 140.65608232657902 212.15945788845838 137.14867944125206 208.4815973663275 135.22209320374623 C 204.8037368441966 133.29550696624037 209.01428941410396 131.9003943382563 211.5 131.00961894323342 C 213.89203403874828 132.06264687739386 215.86433777086432 135.53089890580426 216.06449632973278 131.59646050364756 C 216.26465488860123 127.66202210149086 222.33965488860125 131.16942498681786 219.10199632973277 133.35016194631103 C 215.86433777086432 135.53089890580426 220.18957865138688 136.74343691349202 222.75 137.5048094716167 C 225.31941885260184 136.7590210475418 229.7001064551034 135.24790571994149 225.88749265733952 133.39911932239653 C 222.07487885957565 131.5503329248516 228.14987885957564 128.0429300395246 228.92499265733954 131.64541787973303 C 229.7001064551034 135.24790571994149 231.93175065916995 132.62345842490154 234 131.00961894323342 C 236.49603551641937 131.88251103400526 239.7354915731944 132.34227180312274 236.9475807938121 134.78267076416975 C 234.15967001442988 137.22306972521676 240.23467001442987 140.73047261054373 239.98508079381213 136.53637220683325 C 239.7354915731944 132.34227180312274 242.9980637848468 136.2091249889598 245.25 137.5048094716167 C 247.21136537883672 135.70584153726185 249.34880026479394 133.0458381765144 250.14605664343847 136.63554199169081 C 250.94331302208303 140.22524580686724 257.018313022083 136.71784292154027 253.1835566434385 134.88184054902734 C 249.34880026479394 133.0458381765144 253.93207688171222 131.7579980551349 256.5 131.00961894323342 M 31.5 156.99038105676658 C 34.07061213215116 156.24665945349872 35.92043681887341 152.98475514215912 36.435385885151135 156.73744916012475 C 36.95033495142886 160.49014317809036 43.02533495142886 156.9827402927634 39.47288588515113 154.98374771746126 C 35.92043681887341 152.98475514215912 40.266454343204735 151.3897156906035 42.75 150.4951905283833 C 44.769221057823145 152.19394948722726 47.10586194658469 154.50653476813824 47.73384605746128 150.81910156359962 C 48.36183016833786 147.13166835906105 54.43683016833786 150.63907124438802 50.77134605746127 152.57280300626311 C 47.10586194658469 154.50653476813824 51.477756841815804 156.16288193307795 54 156.99038105676658 C 55.99875605254726 155.2561756690076 60.193080730279576 154.88934694591563 56.5333150992763 152.9523136181463 C 52.873549468273026 151.01528029037698 58.94854946827303 147.50787740505 59.570815099276295 151.1986121754828 C 60.193080730279576 154.88934694591563 62.79149022890182 151.43307911664334 65.25 150.4951905283833 C 67.76704038497829 151.33170111960482 70.2911443661605 155.33128431579792 70.20996496837553 151.2344153686341 C 70.12878557059058 147.1375464214703 76.20378557059058 150.6449493067973 73.24746496837552 152.98811681129757 C 70.2911443661605 155.33128431579792 74.00093247556714 156.12274055792304 76.5 156.99038105676658 C 78.81860788065876 155.8101752861905 82.23476059035491 155.03997059700507 78.88890207321214 152.92170291254783 C 75.54304355606936 150.80343522809062 81.61804355606935 147.29603234276365 81.92640207321213 151.16800146988436 C 82.23476059035491 155.03997059700507 85.50532442846136 151.8034508146763 87.75 150.4951905283833 C 90.02620492187303 151.7488403779675 94.77889993276469 153.18287433824483 91.13278913463364 155.1277912874487 C 87.48667833650258 157.07270823665252 93.56167833650257 160.5801111219795 94.17028913463363 156.88149273011217 C 94.77889993276469 153.18287433824483 96.45070125672066 156.20974358109126 99 156.99038105676658 C 101.36495639682722 155.89045327104972 105.99486866854423 154.8703443539485 102.47269626266194 152.85387154061686 C 98.95052385677965 150.8373987272853 105.02552385677964 147.32999584195832 105.51019626266194 151.1001700979534 C 105.99486866854423 154.8703443539485 107.82367347883401 151.4888221406786 110.25 150.4951905283833 C 112.53096799309269 151.74059049661497 114.8229203681825 155.68584771965178 114.98818228490029 151.73126173175555 C 115.15344420161807 147.77667574385936 121.22844420161806 151.28407862918635 118.02568228490028 153.48496317441905 C 114.8229203681825 155.68584771965178 119.02821629470984 156.07548359694337 121.5 156.99038105676658 C 123.90600485257623 155.96155128197924 126.00566910371207 152.2221593057298 126.23393602130794 156.14036933940878 C 126.46220293890381 160.0585793730877 132.53720293890382 156.55117648776073 129.27143602130795 154.38666789674528 C 126.00566910371207 152.2221593057298 130.72725912951856 152.18785299286998 132.75 150.4951905283833 C 134.78715881620823 152.16288037833039 138.1027101577596 152.19027013831783 135.25158167456107 154.59417034104897 C 132.40045319136257 156.9980705437801 138.47545319136256 160.5054734291071 138.2890816745611 156.34787178371246 C 138.1027101577596 152.19027013831783 141.46944823512814 156.1772728620011 144 156.99038105676658 C 146.07418728527085 155.38682639656244 150.34197515844195 155.36842729630513 147.33102677576593 153.05679915555916 C 144.32007839308997 150.74517101481322 150.39507839308996 147.23776812948626 150.36852677576596 151.3030977128957 C 150.34197515844195 155.36842729630513 152.90197809202365 151.62444970919006 155.25 150.4951905283833 C 157.68711800821575 151.47013073681916 162.62505230691613 152.65839708195526 158.93430583689224 154.57754361397633 C 155.2435593668684 156.4966901459974 161.31855936686839 160.00409303132437 161.97180583689226 156.33124505663983 C 162.62505230691613 152.65839708195526 164.04761927725497 156.04187664535684 166.5 156.99038105676658 C 168.53513875206195 155.3191923530836 171.51568731271857 151.6389841521809 171.3661887224997 155.77529720348727 C 171.21669013228086 159.91161025479357 177.29169013228085 156.4042073694666 174.4036887224997 154.02159576082377 C 171.51568731271857 151.6389841521809 175.58215947822515 151.93653302466925 177.75 150.4951905283833 C 179.98564205828842 151.8190973185965 181.80751294675744 155.067906217749 182.09028478790307 151.18116461635364 C 182.3730566290487 147.2944230149583 188.4480566290487 150.8018259002853 185.1277847879031 152.93486605901714 C 181.80751294675744 155.067906217749 186.5236018734744 156.08347600897068 189 156.99038105676658 C 191.1269400330622 155.4781968359759 193.43491659061613 152.90677019437783 194.03623799384928 156.60959712035168 C 194.6375593970825 160.3124240463255 200.7125593970825 156.80502116099854 197.0737379938493 154.85589567768818 C 193.43491659061613 152.90677019437783 198.19132382464264 152.1256112190394 200.25 150.4951905283833 C 202.67949677936525 151.48333109240434 205.46433381169197 155.68038611979773 205.20712892414755 151.48188880873707 C 204.9499240366032 147.28339149767643 211.02492403660318 150.7907943830034 208.24462892414758 153.23559025140057 C 205.46433381169197 155.68038611979773 209.43110307129007 155.37766323020875 211.5 156.99038105676658 C 213.84224915582598 155.85112317593584 217.41937983198565 155.2955556183642 214.32387117600658 153.0327483741725 C 211.22836252002753 150.76994112998085 217.30336252002752 147.26253824465385 217.3613711760066 151.27904693150901 C 217.41937983198565 155.2955556183642 220.27938283053678 151.41210848752763 222.75 150.4951905283833 C 224.80751382567925 152.12762446773803 228.60622325297464 152.0987176910525 225.82430034758983 154.54257375276381 C 223.04237744220504 156.98642981447512 229.11737744220503 160.4938326998021 228.86180034758985 156.2962751954273 C 228.60622325297464 152.0987176910525 231.5426854368229 156.05042230766162 234 156.99038105676658 C 236.57424379146738 156.25294967195018 239.37363564912553 152.36536454639113 239.10535625728465 156.57025572548852 C 238.83707686544372 160.7751469045859 244.91207686544374 157.26774401925894 242.14285625728465 154.81655428282505 C 239.37363564912553 152.36536454639113 242.76952712901382 151.39503791174565 245.25 150.4951905283833 C 247.41813529458858 151.9360224631792 250.9200060640932 152.12774639450475 248.16644744251818 154.58797858310902 C 245.41288882094315 157.04821077171326 251.48788882094314 160.55561365704023 251.2039474425182 156.34168002577252 C 250.9200060640932 152.12774639450475 254.29467096555692 155.6139705691222 256.5 156.99038105676658 M 42.75 176.47595264191645 C 44.79730156895207 174.8258305550503 47.17926313877887 171.3446935954507 47.32523087613731 175.31041908299383 C 47.47119861349574 179.27614457053693 53.54619861349574 175.76874168520996 50.362730876137306 173.55671764033033 C 47.17926313877887 171.3446935954507 51.80470510780731 171.3745522453656 54 169.98076211353316 C 56.069531042730986 171.59238162238873 61.25574116885733 171.58607764560412 57.777323317177945 173.62781216258304 C 54.29890546549855 175.66954667956193 60.37390546549855 179.17694956488893 60.81482331717794 175.38151360524654 C 61.25574116885733 171.58607764560412 62.776417141735465 175.56417140645544 65.25 176.47595264191645 C 67.75686428475889 175.62181652809204 69.59471189906635 172.37570174882177 70.33901208462086 175.99597983633402 C 71.08331227017536 179.61625792384623 77.15831227017534 176.10885503851927 73.37651208462086 174.24227839367052 C 69.59471189906635 172.37570174882177 73.9954219840631 170.83885816111703 76.5 169.98076211353316 C 78.56873624626174 171.59375825025515 81.40596626783719 174.94976477642433 81.49480076498497 170.95105339726592 C 81.58363526213276 166.95234201810752 87.65863526213275 170.45974490343448 84.53230076498497 172.7047548399294 C 81.40596626783719 174.94976477642433 85.63347362373176 174.94573143846605 87.75 176.47595264191645 C 90.06153378915654 175.28349418544116 93.43256716333896 171.1702050762726 93.27289853808135 175.31238980004622 C 93.11322991282374 179.45457452381984 99.18822991282373 175.94717163849285 96.31039853808134 173.55868835738272 C 93.43256716333896 171.1702050762726 96.76453009322731 171.30496707891822 99 169.98076211353316 C 101.02747691685087 171.66522150508098 105.52582035867452 171.93137250194883 102.25544385834579 174.09321974913263 C 98.98506735801703 176.2550669963164 105.06006735801704 179.76246988164337 105.29294385834578 175.84692119179613 C 105.52582035867452 171.93137250194883 108.31300321691303 174.63477706161393 110.25 176.47595264191645 C 112.55521271974648 175.27254577206475 116.89825706059122 174.81373395280386 113.92383472892921 172.48101748667253 C 110.94941239726721 170.14830102054123 117.0244123972672 166.64089813521426 116.9613347289292 170.72731604400903 C 116.89825706059122 174.81373395280386 119.38260160830019 171.5094729419511 121.5 169.98076211353316 C 123.46761250467044 171.76890970854274 125.73088524105903 174.27149629932637 126.08921114946783 170.4283758590038 C 126.44753705787663 166.58525541868124 132.52253705787663 170.0926583040082 129.12671114946784 172.18207730166728 C 125.73088524105903 174.27149629932637 130.81214198816392 174.6362687535643 132.75 176.47595264191645 C 135.2895048539205 175.6783516522679 137.7621845350737 171.45548310801414 137.86597166637006 175.44556157982177 C 137.96975879766643 179.4356400516294 144.04475879766642 175.9282371663024 140.90347166637008 173.6918601371583 C 137.7621845350737 171.45548310801414 141.60548047373723 171.0294850570369 144 169.98076211353316 C 146.28162534332736 171.22502351776004 148.70100798008062 174.83928808169026 149.48795991730697 171.24363499448717 C 150.27491185453334 167.64798190728413 156.34991185453336 171.1553847926111 152.52545991730696 172.99733643715066 C 148.70100798008062 174.83928808169026 152.83784472109159 175.45777571802466 155.25 176.47595264191645 C 157.27243910568885 174.78276750547707 161.17468871714192 174.79783354453858 158.01209851565585 172.573755848703 C 154.84950831416984 170.34967815286743 160.92450831416983 166.84227526754046 161.04959851565587 170.8200544060395 C 161.17468871714192 174.79783354453858 164.5082625805754 171.72712413046028 166.5 169.98076211353316 C 168.9720259635912 170.89523996967043 171.0427702310257 175.1779797716506 170.96185200423355 171.08126161162977 C 170.88093377744138 166.98454345160897 176.95593377744137 170.49194633693597 173.99935200423357 172.83496305429327 C 171.0427702310257 175.1779797716506 175.22952051879386 175.6453987400937 177.75 176.47595264191645 C 179.90940309559014 175.01999609479344 181.85791188689527 172.08728498012422 182.58576093613019 175.71706113561908 C 183.3136099853651 179.34683729111387 189.3886099853651 175.83943440578688 185.6232609361302 173.96335969295558 C 181.85791188689527 172.08728498012422 186.81330642572985 171.3894501650195 189 169.98076211353316 C 191.059755639095 171.60931311815077 196.41201264777658 171.7976259495126 192.73162664164965 173.72275409815353 C 189.0512406355228 175.64788224679444 195.12624063552278 179.1552851321214 195.76912664164968 175.47645554081703 C 196.41201264777658 171.7976259495126 198.23056632773478 174.7775619420886 200.25 176.47595264191645 C 202.71555187844746 175.55026134137768 204.2790065580816 171.4726979738303 204.76969370869764 175.23939961533424 C 205.2603808593137 179.00610125683815 211.3353808593137 175.49869837151118 207.80719370869767 173.48569817267074 C 204.2790065580816 171.4726979738303 209.51951932787622 171.74662138871324 211.5 169.98076211353316 C 213.46992193421613 171.7649096592331 216.21986482554811 174.87042603709543 216.96193675209477 171.2488614636452 C 217.70400867864146 167.62729689019497 223.77900867864145 171.13469977552194 219.9994367520948 173.00256290630867 C 216.21986482554811 174.87042603709543 220.238498598976 175.6298482490638 222.75 176.47595264191645 C 225.20506303676336 175.5320941346683 227.5298530310829 172.32016406918615 228.31106477164963 175.91913126047587 C 229.09227651221642 179.51809845176555 235.1672765122164 176.01069556643856 231.34856477164965 174.16542981781237 C 227.5298530310829 172.32016406918615 231.64488969740157 171.09774383471037 234 169.98076211353316 C 236.0653730158899 171.59958353613672 238.53400386196844 174.4543149391122 238.49949962702388 170.38439390977877 C 238.46499539207935 166.31447288044535 244.53999539207933 169.82187576577232 241.5369996270239 172.13809535244226 C 238.53400386196844 174.4543149391122 242.76505483362865 175.5838515013877 245.25 176.47595264191645 M 54 195.96152422706632 C 56.20980903363647 194.59287332564273 58.579906075423885 190.70990893615848 58.46069971488431 194.82873276050515 C 58.34149335434473 198.94755658485178 64.41649335434474 195.4401536995248 61.49819971488431 193.07503131784168 C 58.579906075423885 190.70990893615848 62.93869642360373 190.65919089535566 65.25 189.46633369868303 C 67.4427929181698 190.86445737664235 71.0475999206944 190.3326634682503 68.2044985675851 192.7411981366993 C 65.3613972144758 195.14973280514826 71.43639721447579 198.65713569047523 71.2419985675851 194.4948995793628 C 71.0475999206944 190.3326634682503 74.08605189032009 194.94645257716013 76.5 195.96152422706632 C 78.48700270654723 194.20696144687636 83.16715400128402 194.60201297915546 79.89981957109418 192.4384093919581 C 76.63248514090434 190.27480580476072 82.70748514090434 186.76740291943375 82.93731957109419 190.6847079492946 C 83.16715400128402 194.60201297915546 85.5191764710064 190.79858642645266 87.75 189.46633369868303 C 90.24565849118562 190.3398788163155 91.65580206856293 193.88661702025288 92.28541589875249 190.20012473459832 C 92.91502972894205 186.51363244894378 98.99002972894203 190.02103533427075 95.32291589875248 191.9538261772618 C 91.65580206856293 193.88661702025288 96.67281244540443 194.79617888766117 99 195.96152422706632 C 101.52401593074538 195.13709563552393 105.64142410113121 194.22802937782583 102.00202250667138 192.27923886807636 C 98.36262091221154 190.3304483583269 104.43762091221153 186.82304547299992 105.03952250667137 190.52553742541286 C 105.64142410113121 194.22802937782583 107.72314253880398 190.28584061511367 110.25 189.46633369868303 C 112.66705812842036 190.47601863811826 114.85366630185118 193.7035911879447 114.9995094108421 189.73779374618005 C 115.145352519833 185.7719963044154 121.22035251983299 189.27939918974238 118.03700941084209 191.49149518884354 C 114.85366630185118 193.7035911879447 119.52689305735474 194.18289327778817 121.5 195.96152422706632 C 123.82690817595754 194.79569498966558 126.52133109045741 191.39721774444212 126.72921264264886 195.32719727432485 C 126.93709419484031 199.25717680420755 133.0120941948403 195.74977391888055 129.76671264264888 193.57349583166135 C 126.52133109045741 191.39721774444212 130.42207233188432 190.63039712386797 132.75 189.46633369868303 C 134.98140444930553 190.79758024295722 139.70601397249763 191.43221708167843 136.30996492517883 193.52150725002778 C 132.91391587786006 195.6107974183771 138.98891587786005 199.11820030370407 139.34746492517885 195.27520869269128 C 139.70601397249763 191.43221708167843 141.73998420931377 194.67983397973617 144 195.96152422706632 C 146.15903136932073 194.5049238311582 147.45613958554347 191.27423709556376 148.22778334115725 194.87872836554166 C 148.9994270967711 198.48321963551953 155.07442709677107 194.97581675019256 151.26528334115727 193.12502692287816 C 147.45613958554347 191.27423709556376 152.70427929027528 190.25316851026616 155.25 189.46633369868303 C 157.48126238853308 190.7978262994329 161.59861234858516 191.24311449750874 158.35417424513312 193.41993728511164 C 155.10973614168108 195.59676007271452 161.1847361416811 199.1041629580415 161.39167424513315 195.17363872777514 C 161.59861234858516 191.24311449750874 164.41899486299488 194.36977843246441 166.5 195.96152422706632 C 168.520346520239 194.26471462630863 171.47259752964675 191.23745083952412 171.9125262338931 195.03345788370325 C 172.3524549381395 198.82946492788236 178.42745493813948 195.3220620425554 174.9500262338931 193.27975644103975 C 171.47259752964675 191.23745083952412 175.21520752532948 190.27209676861708 177.75 189.46633369868303 C 179.69967431023198 191.28555115785605 184.23610055556426 190.5977247837158 181.3027978712046 192.95418168928612 C 178.369495186845 195.3106385948564 184.444495186845 198.81804148018338 184.34029787120463 194.70788313194961 C 184.23610055556426 190.5977247837158 186.96260820041545 194.29423791616435 189 195.96152422706632 C 191.27493304017275 194.70567141375605 195.5729754435558 194.3470247269947 191.90342061119028 192.41564319726697 C 188.23386577882482 190.4842616675393 194.3088657788248 186.97685878221233 194.9409206111903 190.6619417546035 C 195.5729754435558 194.3470247269947 198.14514099541861 191.01676338268587 200.25 189.46633369868303 C 202.47435530433552 190.80978972019523 207.61369117112497 191.29010735135356 204.21125621043598 193.3757106108996 C 200.80882124974698 195.46131387044562 206.883821249747 198.96871675577262 207.24875621043597 195.1294120535631 C 207.61369117112497 191.29010735135356 209.00473316781344 195.08730073614825 211.5 195.96152422706632 C 213.51350129509316 194.25285834856678 216.15733843504225 191.72445544492524 216.5800393892164 195.5304089352461 C 217.00274034339057 199.33636242556693 223.07774034339056 195.82895954023996 219.61753938921643 193.7767074925826 C 216.15733843504225 191.72445544492524 220.36257503184655 190.5273447772894 222.75 189.46633369868303 C 224.70911262216737 191.26920352204627 228.3697188932689 194.0660438614874 228.52177457176197 190.10383324839717 C 228.67383025025507 186.14162263530696 234.74883025025505 189.64902552063393 231.559274571762 191.85753469106066 C 228.3697188932689 194.0660438614874 231.7682170441222 194.6309332754063 234 195.96152422706632 M 65.25 215.4470958122162 C 67.22639002267647 213.6741513243574 71.52650019433877 213.42852607361834 68.46039347324763 211.14874361440442 C 65.39428675215649 208.8689611551905 71.46928675215648 205.36155826986354 71.49789347324763 209.39504217174093 C 71.52650019433877 213.42852607361834 74.1289559200011 210.04128889299605 76.5 208.9519052838329 C 79.05593605137013 209.7210466046695 81.14217213065271 214.13533647275366 81.18470924088125 210.10989528479465 C 81.22724635110977 206.08445409683563 87.30224635110976 209.59185698216262 84.22220924088124 211.86359672745814 C 81.14217213065271 214.13533647275366 85.41606792866571 214.29343231847503 87.75 215.4470958122162 C 89.78035872769766 213.7676278634728 93.65088540365322 213.67826141760642 90.30432551042274 211.56039867282223 C 86.95776561719227 209.44253592803807 93.03276561719225 205.93513304271107 93.34182551042274 209.80669723015873 C 93.65088540365322 213.67826141760642 97.07144689343355 210.80770574087163 99 208.9519052838329 C 101.11267689416715 210.48879398586521 104.73373144474307 213.58197303142185 104.6832862359287 209.50284847653353 C 104.63284102711432 205.4237239216452 110.70784102711431 208.9311268069722 107.7207862359287 211.256549919197 C 104.73373144474307 213.58197303142185 107.67567045235617 214.70981296145447 110.25 215.4470958122162 C 112.37573947517889 213.9328321641742 115.91070134573376 210.49522394620445 115.75636622827118 214.63432936781692 C 115.60203111080861 218.77343478942933 121.6770311108086 215.26603190410236 118.79386622827117 212.88062792515342 C 115.91070134573376 210.49522394620445 119.0219718010238 209.85598696332434 121.5 208.9519052838329 C 123.8696274887525 210.04374250100835 126.74766070104043 213.46183975797075 127.08103818119768 209.60431533588127 C 127.41441566135495 205.74679091379184 133.48941566135494 209.2541937991188 130.1185381811977 211.35801677854477 C 126.74766070104043 213.46183975797075 130.80219024261035 213.62464885278683 132.75 215.4470958122162 C 134.73702794768238 213.69257675095474 139.133350563081 213.4563929086098 135.96180984778158 211.23748279433377 C 132.79026913248217 209.01857268005776 138.86526913248215 205.5111697947308 138.9993098477816 209.48378135167027 C 139.133350563081 213.4563929086098 141.99957322643226 210.68321689789914 144 208.9519052838329 C 145.95712127641468 210.75822421921524 149.1637671843635 213.44894376500417 149.57435946108185 209.6359993264947 C 149.98495173780026 205.82305488798525 156.05995173780025 209.33045777331222 152.61185946108188 211.3897007691582 C 149.1637671843635 213.44894376500417 152.9681237931368 214.20326891637916 155.25 215.4470958122162 C 157.3199505439621 213.83620290080677 160.3505061233543 210.3453962336553 160.49998253900915 214.3090959848395 C 160.64945895466397 218.27279573602368 166.724458954664 214.7653928506967 163.53748253900915 212.555394542176 C 160.3505061233543 210.3453962336553 164.26265907454086 210.27286954979115 166.5 208.9519052838329 C 168.9679383758693 209.8734630495849 172.18175818313227 210.62256652508717 169.33752231318817 213.03044617993618 C 166.49328644324413 215.43832583478516 172.56828644324412 218.94572872011216 172.3750223131882 214.78414762259968 C 172.18175818313227 210.62256652508717 175.35931444935284 214.39173222815123 177.75 215.4470958122162 C 179.82308870504514 213.84163835524492 183.25889698339958 213.7716581485954 180.5027390548333 211.31292667058224 C 177.74658112626707 208.85419519256908 183.82158112626706 205.3467923072421 183.54023905483334 209.55922522791874 C 183.25889698339958 213.7716581485954 186.80935836392916 210.353755091689 189 208.9519052838329 C 191.21320043041206 210.31468211373252 194.97181594580078 211.0468472350636 191.89813831504944 213.3222586275472 C 188.8244606842981 215.5976700200308 194.89946068429808 219.10507290535776 194.93563831504946 215.0759600702107 C 194.97181594580078 211.0468472350636 198.02695233956823 214.10137488502454 200.25 215.4470958122162 C 202.60221063262568 214.32509171532098 206.91204751938378 214.05363145191083 203.44836013255588 212.00339229708462 C 199.98467274572798 209.95315314225843 206.05967274572797 206.44575025693143 206.4858601325559 210.24969085442112 C 206.91204751938378 214.05363145191083 209.22149898721634 210.20157818730107 211.5 208.9519052838329 C 213.47036004988104 210.73529399094164 217.56955739793378 210.2572970970158 214.46142616429796 212.51281669259947 C 211.35329493066214 214.76833628818315 217.42829493066213 218.27573917351012 217.49892616429798 214.26651813526297 C 217.56955739793378 210.2572970970158 220.48908637202706 214.1669606646836 222.75 215.4470958122162 M 76.5 234.93266739736606 C 78.95673480903113 233.99170448462436 81.34298185116732 230.35491724983976 81.24221054402148 234.46309759114703 C 81.14143923687563 238.57127793245428 87.21643923687562 235.0638750471273 84.27971054402147 232.70939614848353 C 81.34298185116732 230.35491724983976 85.70288372139794 230.0879198881493 87.75 228.43747686898274 C 90.0080983825278 229.7224881646621 93.90991671179191 229.56791251931764 90.96456552446818 231.91741321845834 C 88.01921433714445 234.266913917599 94.09421433714444 237.77431680292597 94.00206552446818 233.67111466112183 C 93.90991671179191 229.56791251931764 96.69131285534893 233.7352784079762 99 234.93266739736606 C 100.99420473900278 233.19057890330686 103.67734908980606 229.4784642173387 104.19210842735852 233.23126777523498 C 104.70686776491098 236.9840713331312 110.78186776491097 233.4766684478042 107.22960842735851 231.47756633257148 C 103.67734908980606 229.4784642173387 108.27115197930075 230.20616397938116 110.25 228.43747686898274 C 112.31386605587143 230.05890842290327 116.34770781409821 229.80216625047876 113.05210446091174 231.94944876737435 C 109.75650110772526 234.09673128426988 115.83150110772524 237.60413416959688 116.08960446091173 233.70315021003785 C 116.34770781409821 229.80216625047876 118.99297767967408 234.07880500917312 121.5 234.93266739736606 C 123.90122769952895 233.8955633507853 126.20823028766563 229.51734140139803 126.53290315125743 233.37989143620476 C 126.85757601484923 237.24244147101146 132.93257601484922 233.73503858568446 129.57040315125744 231.62618999354126 C 126.20823028766563 229.51734140139803 130.33698931448995 229.45417218517937 132.75 228.43747686898274 C 135.12958102613408 229.51207405369829 137.69030301414418 232.88624532805864 138.4695878249455 229.28616562335014 C 139.2488726357468 225.68608591864165 145.32387263574682 229.19348880396865 141.5070878249455 231.0398670660136 C 137.69030301414418 232.88624532805864 141.76600325142235 233.6059108471396 144 234.93266739736606 C 146.02845099967388 233.24989516675848 148.9165497403033 230.33049687814318 149.11813020044139 234.26411434521913 C 149.3197106605795 238.19773181229505 155.39471066057948 234.69032892696805 152.1556302004414 232.51041290255563 C 148.9165497403033 230.33049687814318 153.1805262351221 230.04919558599002 155.25 228.43747686898274 C 157.45993320949415 229.80591269151174 159.9275252819977 233.9050082123719 160.37278336400337 230.11207808587673 C 160.8180414460091 226.31914795938155 166.89304144600908 229.82655084470855 163.4102833640034 231.8657795285402 C 159.9275252819977 233.9050082123719 164.19271079803343 233.73285710022057 166.5 234.93266739736606 C 168.5215517093929 233.23794524545562 172.62099551715687 232.9204807471165 169.42373196322558 230.71642172064887 C 166.22646840929434 228.5123626941813 172.30146840929433 225.0049598088543 172.4612319632256 228.9627202779854 C 172.62099551715687 232.9204807471165 175.33813985399792 229.4561649780633 177.75 228.43747686898274 C 180.02111412238185 229.69994424193683 182.17644109771697 232.43927070322047 182.59264505368412 228.6295661692359 C 183.0088490096513 224.8198616352513 189.0838490096513 228.32726452057827 185.63014505368415 230.38326761189938 C 182.17644109771697 232.43927070322047 187.03539889201878 233.13930391028904 189 234.93266739736606 C 191.3804930977925 233.85964996710308 195.14900107114946 232.78377283445695 191.89932551719428 230.6099738903119 C 188.64964996323914 228.43617494616686 194.72464996323913 224.92877206083986 194.9368255171943 228.8562724476484 C 195.14900107114946 232.78377283445695 197.72036854216924 229.25217908230198 200.25 228.43747686898274 C 202.51005299427922 229.7191026777996 206.43132901552957 230.57865260787545 203.55841153882648 232.96997292934137 C 200.6854940621234 235.36129325080725 206.7604940621234 238.86869613613425 206.5959115388265 234.72367437200487 C 206.43132901552957 230.57865260787545 209.26610864613164 233.60572829814825 211.5 234.93266739736606 "></path><path fill="none" stroke="DarkRed" stroke-width="0.2" d="M 99 40.076951545867374 C 99.30440310439648 42.67502775722069 100.86159146056939 45.6612757196321 97.3541885752424 44.333319418830165 C 93.84678568991544 43.005363118028235 93.84678568991544 50.020168888682186 97.3541885752424 47.84072230415715 C 100.86159146056939 45.6612757196321 99.06248069666314 50.46925639128064 99 53.067332602633954 M 121.5 40.076951545867374 C 121.28019342239988 42.67502775722069 123.00904687256231 47.144801449577976 119.50164398723534 45.38074542048918 C 115.99424110190836 43.61668939140037 115.99424110190836 50.63149516205433 119.50164398723534 48.88814830581615 C 123.00904687256231 47.144801449577976 121.94469561177168 50.46925639128064 121.5 53.067332602633954 M 144 40.076951545867374 C 143.53057436598377 42.67502775722069 142.22036700513644 47.078111053737494 145.7277698904634 44.87690637308642 C 149.23517277579037 42.67570169243535 149.23517277579037 49.690507463089304 145.7277698904634 48.384309258413396 C 142.22036700513644 47.078111053737494 144.16711919172556 50.46925639128064 144 53.067332602633954 M 166.5 40.076951545867374 C 166.70437120895357 42.67502775722069 167.6450462194208 46.37647134834032 164.1376433340938 44.33447565453459 C 160.63024044876684 42.29247996072887 160.63024044876684 49.30728573138282 164.1376433340938 47.84187853986157 C 167.6450462194208 46.37647134834032 166.57693707867082 50.46925639128064 166.5 53.067332602633954 M 189 40.076951545867374 C 189.39799982148503 42.67502775722069 186.94001891817396 47.05993820984215 190.44742180350093 45.28344841934326 C 193.95482468882793 43.506958628844366 193.95482468882793 50.52176439949832 190.44742180350093 48.790851304670234 C 186.94001891817396 47.05993820984215 189.39384779362265 50.46925639128064 189 53.067332602633954 M 87.75 59.562523131017244 C 87.15176035358799 62.16059934237056 88.9059208083443 66.01414681549284 85.39851792301734 64.0283530062398 C 81.89111503769037 62.04255919698676 81.89111503769037 69.05736496764071 85.39851792301734 67.53575589156678 C 88.9059208083443 66.01414681549284 88.33191377425688 69.9548279764305 87.75 72.55290418778381 M 110.25 59.562523131017244 C 110.0301353654369 62.16059934237056 108.70556239853705 66.10825889750559 112.21296528386402 64.51635734091317 C 115.72036816919099 62.92445578432075 115.72036816919099 69.93926155497469 112.21296528386402 68.02376022624014 C 108.70556239853705 66.10825889750559 110.71727645231445 69.9548279764305 110.25 72.55290418778381 M 132.75 59.562523131017244 C 132.33971741669012 62.16059934237056 135.0858045793851 66.45751197435135 131.57840169405813 64.73333989271501 C 128.07099880873116 63.00916781107867 128.07099880873116 70.02397358173262 131.57840169405813 68.24074277804198 C 135.0858045793851 66.45751197435135 132.65068832445502 69.9548279764305 132.75 72.55290418778381 M 155.25 59.562523131017244 C 155.48898349878485 62.16059934237056 156.7388508481604 65.67477808199502 153.23144796283344 64.0349470056911 C 149.72404507750647 62.39511592938715 149.72404507750647 69.4099217000411 153.23144796283344 67.54234989101806 C 156.7388508481604 65.67477808199502 155.7549003442385 69.9548279764305 155.25 72.55290418778381 M 177.75 59.562523131017244 C 177.95436343900383 62.16059934237056 179.47938902629377 64.95376162071139 175.97198614096678 63.74435716821081 C 172.4645832556398 62.53495271571024 172.4645832556398 69.54975848636418 175.97198614096678 67.2517600535378 C 179.47938902629377 64.95376162071139 177.57291137294493 69.9548279764305 177.75 72.55290418778381 M 200.25 59.562523131017244 C 200.06771049291012 62.16059934237056 202.00327833903282 65.736421971299 198.49587545370582 63.86503535369193 C 194.98847256837885 61.99364873608487 194.98847256837885 69.00845450673881 198.49587545370582 67.3724382390189 C 202.00327833903282 65.736421971299 200.67501522093175 69.9548279764305 200.25 72.55290418778381 M 76.5 79.0480947161671 C 76.82525505577884 81.64617092752042 78.33296939051986 85.44367311059952 74.82556650519288 84.08505672218769 C 71.31816361986591 82.72644033377587 71.31816361986591 89.74124610442983 74.82556650519288 87.59245960751467 C 78.33296939051986 85.44367311059952 76.09684145054018 89.44039956158036 76.5 92.03847577293368 M 99 79.0480947161671 C 99.39316801147099 81.64617092752042 96.72519555401497 85.36884884390392 100.23259843934194 83.62347483039392 C 103.74000132466892 81.87810081688393 103.74000132466892 88.89290658753788 100.23259843934194 87.1308777157209 C 96.72519555401497 85.36884884390392 99.56951773936089 89.44039956158036 99 92.03847577293368 M 121.5 79.0480947161671 C 121.03556062478705 81.64617092752042 119.9016743168099 85.61892933886064 123.40907720213687 83.65588306614153 C 126.91648008746385 81.69283679342242 126.91648008746385 88.70764256407637 123.40907720213687 87.1632859514685 C 119.9016743168099 85.61892933886064 121.46492274710643 89.44039956158036 121.5 92.03847577293368 M 144 79.0480947161671 C 143.90718413515043 81.64617092752042 146.31958477147202 84.98677846395748 142.81218188614505 83.40743716559743 C 139.30477900081806 81.82809586723738 139.30477900081806 88.84290163789133 142.81218188614505 86.9148400509244 C 146.31958477147202 84.98677846395748 143.79038290711344 89.44039956158036 144 92.03847577293368 M 166.5 79.0480947161671 C 166.03606933312227 81.64617092752042 164.55619841866903 86.06355867025798 168.063601303996 83.76710805035324 C 171.57100418932296 81.4706574304485 171.57100418932296 88.48546320110245 168.063601303996 87.27451093568021 C 164.55619841866903 86.06355867025798 166.73918044280506 89.44039956158036 166.5 92.03847577293368 M 189 79.0480947161671 C 189.12194836001464 81.64617092752042 191.15388304827712 84.74349626141256 187.64648016295016 83.24748496818832 C 184.1390772776232 81.75147367496409 184.1390772776232 88.76627944561804 187.64648016295016 86.7548878535153 C 191.15388304827712 84.74349626141256 188.38812697657283 89.44039956158036 189 92.03847577293368 M 211.5 79.0480947161671 C 212.02031431616683 81.64617092752042 210.38681439197492 86.48302546000606 213.8942172773019 84.22680323109932 C 217.4016201626289 81.9705810021926 217.4016201626289 88.98538677284655 213.8942172773019 87.73420611642631 C 210.38681439197492 86.48302546000606 212.0595834778412 89.44039956158036 211.5 92.03847577293368 M 65.25 98.53366630131697 C 65.28431591541091 101.13174251267029 67.38238254388943 105.71447293599368 63.87497965856245 103.45830544219643 C 60.36757677323548 101.20213794839918 60.36757677323548 108.21694371905315 63.87497965856245 106.96570832752342 C 67.38238254388943 105.71447293599368 65.01289348640593 108.92597114673023 65.25 111.52404735808355 M 87.75 98.53366630131697 C 87.35359067139439 101.13174251267029 86.42347028900991 105.32849906606731 89.9308731743369 102.96374794620675 C 93.43827605966386 100.59899682634621 93.43827605966386 107.61380259700016 89.9308731743369 106.47115083153373 C 86.42347028900991 105.32849906606731 87.58969355406435 108.92597114673023 87.75 111.52404735808355 M 110.25 98.53366630131697 C 110.54772868651362 101.13174251267029 112.47895421369923 105.06637826767759 108.97155132837224 102.89835458896093 C 105.46414844304527 100.73033091024426 105.46414844304527 107.74513668089821 108.97155132837224 106.4057574742879 C 112.47895421369923 105.06637826767759 109.85480839203757 108.92597114673023 110.25 111.52404735808355 M 132.75 98.53366630131697 C 132.14295018164609 101.13174251267029 133.87082845025833 106.00179235452228 130.36342556493136 103.82851017745695 C 126.85602267960438 101.65522800039163 126.85602267960438 108.67003377104558 130.36342556493136 107.33591306278393 C 133.87082845025833 106.00179235452228 133.1237315938447 108.92597114673023 132.75 111.52404735808355 M 155.25 98.53366630131697 C 154.7920466904657 101.13174251267029 152.95108007962358 104.5910934470143 156.45848296495055 102.83674478229103 C 159.96588585027752 101.08239611756777 159.96588585027752 108.09720188822172 156.45848296495055 106.344147667618 C 152.95108007962358 104.5910934470143 155.30362185886744 108.92597114673023 155.25 111.52404735808355 M 177.75 98.53366630131697 C 177.96486017235537 101.13174251267029 176.06134004650377 104.74647586336258 179.56874293183074 102.91573543834654 C 183.07614581715774 101.08499501333051 183.07614581715774 108.09980078398448 179.56874293183074 106.42313832367353 C 176.06134004650377 104.74647586336258 177.96931911932703 108.92597114673023 177.75 111.52404735808355 M 200.25 98.53366630131697 C 200.3132402828914 101.13174251267029 198.1911280999969 105.08256806258137 201.69853098532386 102.94742970464837 C 205.20593387065082 100.81229134671536 205.20593387065082 107.8270971173693 201.69853098532386 106.45483258997534 C 198.1911280999969 105.08256806258137 200.43195915331938 108.92597114673023 200.25 111.52404735808355 M 222.75 98.53366630131697 C 222.51544610801844 101.13174251267029 224.01152434899947 104.43899634918353 220.5041214636725 103.10477090133024 C 216.99671857834554 101.77054545347696 216.99671857834554 108.7853512241309 220.5041214636725 106.61217378665721 C 224.01152434899947 104.43899634918353 223.05640480495538 108.92597114673023 222.75 111.52404735808355 M 54 118.01923788646684 C 53.904790901434204 120.61731409782016 55.83063992045502 124.19312933093028 52.323237035128045 122.33720858450518 C 48.81583414980107 120.48128783808006 48.81583414980107 127.49609360873401 52.323237035128045 125.84461146983215 C 55.83063992045502 124.19312933093028 53.57620770721546 128.4115427318801 54 131.00961894323342 M 76.5 118.01923788646684 C 76.91160325503802 120.61731409782016 75.3875039540359 124.55701716625109 78.89490683936289 122.83102132646478 C 82.40230972468986 121.10502548667849 82.40230972468986 128.11983125733244 78.89490683936289 126.33842421179176 C 75.3875039540359 124.55701716625109 77.11548119993901 128.4115427318801 76.5 131.00961894323342 M 99 118.01923788646684 C 98.4899077452814 120.61731409782016 101.1556765154248 125.37361032197158 97.64827363009782 123.09812017369973 C 94.14087074477084 120.82263002542787 94.14087074477084 127.83743579608182 97.64827363009782 126.60552305902671 C 101.1556765154248 125.37361032197158 99.57145493610096 128.4115427318801 99 131.00961894323342 M 121.5 118.01923788646684 C 121.82213084030663 120.61731409782016 123.1714311336092 124.29706873769099 119.66402824828224 122.50637514573631 C 116.15662536295525 120.71568155378162 116.15662536295525 127.73048732443557 119.66402824828224 126.01377803106328 C 123.1714311336092 124.29706873769099 121.69215652353155 128.4115427318801 121.5 131.00961894323342 M 144 118.01923788646684 C 143.5372048018357 120.61731409782016 145.48974803268976 124.38896848414949 141.9823451473628 122.48622911593736 C 138.47494226203582 120.58348974772522 138.47494226203582 127.59829551837917 141.9823451473628 125.99363200126433 C 145.48974803268976 124.38896848414949 143.97452160169573 128.4115427318801 144 131.00961894323342 M 166.5 118.01923788646684 C 166.1915024632135 120.61731409782016 168.50687087746985 125.46324259932621 164.99946799214288 123.10930601730573 C 161.49206510681591 120.75536943528523 161.49206510681591 127.7701752059392 164.99946799214288 126.6167089026327 C 168.50687087746985 125.46324259932621 166.21242947955307 128.4115427318801 166.5 131.00961894323342 M 189 118.01923788646684 C 189.04555105344727 120.61731409782016 187.63183727895895 125.45018792508725 191.13924016428592 123.32678455899057 C 194.6466430496129 121.2033811928939 194.6466430496129 128.21818696354785 191.13924016428592 126.83418744431755 C 187.63183727895895 125.45018792508725 188.86462391654442 128.4115427318801 189 131.00961894323342 M 211.5 118.01923788646684 C 211.32275194622324 120.61731409782016 209.28942016944 124.61207816547623 212.79682305476697 122.30774306516598 C 216.30422594009394 120.00340796485571 216.30422594009394 127.01821373550968 212.79682305476697 125.81514595049295 C 209.28942016944 124.61207816547623 211.59133670090807 128.4115427318801 211.5 131.00961894323342 M 234 118.01923788646684 C 233.6890252514055 120.61731409782016 235.82694627757556 124.12368922666928 232.3195433922486 122.34553734403654 C 228.8121405069216 120.5673854614038 228.8121405069216 127.58219123205775 232.3195433922486 125.85294022936351 C 235.82694627757556 124.12368922666928 234.4646796211858 128.4115427318801 234 131.00961894323342 M 42.75 137.5048094716167 C 42.890138176454364 140.10288568297003 41.50814603537364 144.44447961101233 45.01554892070062 142.0904773011152 C 48.52295180602759 139.73647499121805 48.52295180602759 146.751280761872 45.01554892070062 145.59788018644215 C 41.50814603537364 144.44447961101233 42.34567652300818 147.89711431702997 42.75 150.4951905283833 M 65.25 137.5048094716167 C 64.9345547914924 140.10288568297003 67.42334769921527 145.00199836612444 63.91594481388829 142.86860450745655 C 60.408541928561306 140.73521064878864 60.408541928561306 147.7500164194426 63.91594481388829 146.37600739278352 C 67.42334769921527 145.00199836612444 64.65012021709349 147.89711431702997 65.25 150.4951905283833 M 87.75 137.5048094716167 C 88.2967001192324 140.10288568297003 85.70646247386266 144.10821063214314 89.21386535918964 142.87898342005252 C 92.72126824451662 141.64975620796193 92.72126824451662 148.6645619786159 89.21386535918964 146.38638630537952 C 85.70646247386266 144.10821063214314 88.20850077595605 147.89711431702997 87.75 150.4951905283833 M 110.25 137.5048094716167 C 109.97762127193242 140.10288568297003 108.31802949673211 143.5480251617364 111.82543238205908 142.39710919841568 C 115.33283526738606 141.24619323509498 115.33283526738606 148.26099900574891 111.82543238205908 145.90451208374267 C 108.31802949673211 143.5480251617364 109.98235645648381 147.89711431702997 110.25 150.4951905283833 M 132.75 137.5048094716167 C 132.43806240114887 140.10288568297003 131.16819681335642 143.53028451124794 134.67559969868338 142.0852494732446 C 138.18300258401035 140.64021443524126 138.18300258401035 147.6550202058952 134.67559969868338 145.59265235857157 C 131.16819681335642 143.53028451124794 132.5253311484474 147.89711431702997 132.75 150.4951905283833 M 155.25 137.5048094716167 C 154.63999414863642 140.10288568297003 153.4366550935615 143.2438341281217 156.94405797888848 141.84367499319168 C 160.45146086421545 140.4435158582617 160.45146086421545 147.45832162891566 156.94405797888848 145.35107787851868 C 153.4366550935615 143.2438341281217 155.17890670354836 147.89711431702997 155.25 150.4951905283833 M 177.75 137.5048094716167 C 177.61395399393842 140.10288568297003 179.4870029937608 144.89667587124026 175.97960010843383 142.83806987155364 C 172.47219722310683 140.77946387186702 172.47219722310683 147.79426964252096 175.97960010843383 146.3454727568806 C 179.4870029937608 144.89667587124026 178.033500077186 147.89711431702997 177.75 150.4951905283833 M 200.25 137.5048094716167 C 199.92314228965702 140.10288568297003 201.37677863341085 144.4890865538514 197.86937574808385 142.81640812825918 C 194.3619728627569 141.14372970266697 194.3619728627569 148.1585354733209 197.86937574808385 146.32381101358615 C 201.37677863341085 144.4890865538514 199.83651619773886 147.89711431702997 200.25 150.4951905283833 M 222.75 137.5048094716167 C 223.39000383319606 140.10288568297003 223.87036077034242 143.5664685457065 220.36295788501545 141.91857629423427 C 216.85555499968845 140.270684042762 216.85555499968845 147.28548981341598 220.36295788501545 145.42597917956124 C 223.87036077034242 143.5664685457065 222.12453690660928 147.89711431702997 222.75 150.4951905283833 M 245.25 137.5048094716167 C 245.38593306291958 140.10288568297003 246.68087826772182 143.64298347853756 243.17347538239486 142.08858811552295 C 239.6660724970679 140.53419275250837 239.6660724970679 147.54899852316234 243.17347538239486 145.59599100084995 C 246.68087826772182 143.64298347853756 244.88323535008615 147.89711431702997 245.25 150.4951905283833 M 54 156.99038105676658 C 54.42854079788631 159.5884572681199 55.31607466572888 162.9644937230718 51.8086717804019 161.7486687338008 C 48.30126889507492 160.53284374452983 48.30126889507492 167.54764951518376 51.8086717804019 165.2560716191278 C 55.31607466572888 162.9644937230718 53.98657059118277 167.38268590217984 54 169.98076211353316 M 76.5 156.99038105676658 C 76.41015698240895 159.5884572681199 77.77297343761339 164.46706968930124 74.2655705522864 162.19544021732852 C 70.75816766695944 159.9238107453558 70.75816766695944 166.93861651600974 74.2655705522864 165.7028431026555 C 77.77297343761339 164.46706968930124 75.99766066878783 167.38268590217984 76.5 169.98076211353316 M 99 156.99038105676658 C 99.23455379389962 159.5884572681199 100.37971326907952 164.13247149612374 96.87231038375253 162.2746860309923 C 93.36490749842557 160.41690056586089 93.36490749842557 167.43170633651485 96.87231038375253 165.78208891631928 C 100.37971326907952 164.13247149612374 99.02161293471221 167.38268590217984 99 169.98076211353316 M 121.5 156.99038105676658 C 121.49652181393427 159.5884572681199 123.17006477124501 163.70425032177778 119.66266188591803 161.36605331546332 C 116.15525900059104 159.0278563091489 116.15525900059104 166.04266207980282 119.66266188591803 164.87345620079032 C 123.17006477124501 163.70425032177778 122.03100039045553 167.38268590217984 121.5 169.98076211353316 M 144 156.99038105676658 C 143.81428529672436 159.5884572681199 142.708165155331 163.07910655612275 146.21556804065796 161.8526170631696 C 149.72297092598495 160.62612757021643 149.72297092598495 167.6409333408704 146.21556804065796 165.36001994849656 C 142.708165155331 163.07910655612275 143.40758581220302 167.38268590217984 144 169.98076211353316 M 166.5 156.99038105676658 C 166.2707195845103 159.5884572681199 168.00539088149358 164.19011202060818 164.49798799616661 162.2901011265714 C 160.99058511083965 160.39009023253462 160.99058511083965 167.40489600318858 164.49798799616661 165.79750401189838 C 168.00539088149358 164.19011202060818 166.1805609631469 167.38268590217984 166.5 169.98076211353316 M 189 156.99038105676658 C 188.79090586607444 159.5884572681199 190.21298492026975 163.37090415807256 186.70558203494275 161.11253750211418 C 183.19817914961578 158.85417084615577 183.19817914961578 165.86897661680973 186.70558203494275 164.61994038744115 C 190.21298492026975 163.37090415807256 188.61515900486046 167.38268590217984 189 169.98076211353316 M 211.5 156.99038105676658 C 211.6913316330663 159.5884572681199 212.98086965018334 162.43382118044147 209.47346676485634 161.2327351003027 C 205.96606387952937 160.0316490201639 205.96606387952937 167.04645479081788 209.47346676485634 164.74013798562967 C 212.98086965018334 162.43382118044147 211.9765927757117 167.38268590217984 211.5 169.98076211353316 M 234 156.99038105676658 C 233.54093548437058 159.5884572681199 231.8368662910375 163.28710637817136 235.34426917636446 162.03101551542113 C 238.85167206169146 160.7749246526709 238.85167206169146 167.78973042332484 235.34426917636446 165.5384184007481 C 231.8368662910375 163.28710637817136 234.05258725440564 167.38268590217984 234 169.98076211353316 M 65.25 176.47595264191645 C 64.92992497618613 179.07402885326977 63.915285441306025 183.31802193456335 67.422688326633 181.26111022692388 C 70.93009121195998 179.20419851928438 70.93009121195998 186.2190042899383 67.422688326633 184.76851311225084 C 63.915285441306025 183.31802193456335 65.47392075836709 186.8682574873297 65.25 189.46633369868303 M 87.75 176.47595264191645 C 87.61925366685755 179.07402885326977 85.81399825695148 183.07097313685824 89.32140114227845 180.8344723981963 C 92.82880402760543 178.59797165953438 92.82880402760543 185.61277743018834 89.32140114227845 184.34187528352328 C 85.81399825695148 183.07097313685824 87.70936507780317 186.8682574873297 87.75 189.46633369868303 M 110.25 176.47595264191645 C 110.35496802972791 179.07402885326977 111.74901763372131 183.51390756082924 108.24161474839433 181.3536440656508 C 104.73421186306734 179.19338057047236 104.73421186306734 186.20818634112632 108.24161474839433 184.8610469509778 C 111.74901763372131 183.51390756082924 110.26654308373871 186.8682574873297 110.25 189.46633369868303 M 132.75 176.47595264191645 C 132.44121109558128 179.07402885326977 134.52893674793694 183.8888650217384 131.02153386260997 181.74714815907424 C 127.51413097728299 179.60543129641007 127.51413097728299 186.620237067064 131.02153386260997 185.2545510444012 C 134.52893674793694 183.8888650217384 133.02992724497162 186.8682574873297 132.75 189.46633369868303 M 155.25 176.47595264191645 C 154.6406302085682 179.07402885326977 157.37817114200277 183.78964139031626 153.87076825667577 181.57515150519214 C 150.3633653713488 179.36066162006802 150.3633653713488 186.37546739072198 153.87076825667577 185.08255439051914 C 157.37817114200277 183.78964139031626 155.15088177434276 186.8682574873297 155.25 189.46633369868303 M 177.75 176.47595264191645 C 178.36759806660967 179.07402885326977 178.894408126572 182.2185791344373 175.38700524124502 180.60240074421475 C 171.87960235591802 178.98622235399222 171.87960235591802 186.00102812464618 175.38700524124502 184.10980362954174 C 178.894408126572 182.2185791344373 177.71362145706968 186.8682574873297 177.75 189.46633369868303 M 200.25 176.47595264191645 C 200.70209203257951 179.07402885326977 202.34301118737912 182.7476514957412 198.83560830205212 181.38898115491486 C 195.32820541672515 180.03031081408852 195.32820541672515 187.0451165847425 198.83560830205212 184.89638404024183 C 202.34301118737912 182.7476514957412 200.64584720430332 186.8682574873297 200.25 189.46633369868303 M 222.75 176.47595264191645 C 222.43652858380113 179.07402885326977 221.2418871434994 182.49602475952886 224.74929002882638 180.75975284948535 C 228.25669291415338 179.02348093944187 228.25669291415338 186.03828671009583 224.74929002882638 184.26715573481235 C 221.2418871434994 182.49602475952886 223.25062435180206 186.8682574873297 222.75 189.46633369868303 M 76.5 195.96152422706632 C 76.25705200205276 198.55960043841964 78.70788175357728 202.4424131843195 75.20047886825031 201.23025848364404 C 71.69307598292333 200.01810378296855 71.69307598292333 207.03290955362252 75.20047886825031 204.737661368971 C 78.70788175357728 202.4424131843195 77.07666933452295 206.35382907247958 76.5 208.9519052838329 M 99 195.96152422706632 C 99.21271116179393 198.55960043841964 100.82972643762045 202.78533117291252 97.32232355229347 200.5531178668999 C 93.8149206669665 198.32090456088727 93.8149206669665 205.33571033154124 97.32232355229347 204.06052075222686 C 100.82972643762045 202.78533117291252 99.22565620488969 206.35382907247958 99 208.9519052838329 M 121.5 195.96152422706632 C 121.73274759186255 198.55960043841964 119.10900628377622 201.6779014585685 122.61640916910319 200.25834460334477 C 126.12381205443018 198.83878774812106 126.12381205443018 205.85359351877503 122.61640916910319 203.76574748867176 C 119.10900628377622 201.6779014585685 121.16670733986834 206.35382907247958 121.5 208.9519052838329 M 144 195.96152422706632 C 144.4301108547436 198.55960043841964 142.3863884446636 202.84815844757804 145.8937913299906 200.96968207289387 C 149.40119421531756 199.09120569820968 149.40119421531756 206.10601146886364 145.8937913299906 204.47708495822084 C 142.3863884446636 202.84815844757804 144.17032871340967 206.35382907247958 144 208.9519052838329 M 166.5 195.96152422706632 C 166.40521229811083 198.55960043841964 164.60767951178292 201.64363828989434 168.1150823971099 200.2290396537925 C 171.62248528243686 198.81444101769068 171.62248528243686 205.82924678834465 168.1150823971099 203.73644253911948 C 164.60767951178292 201.64363828989434 166.64710790774888 206.35382907247958 166.5 208.9519052838329 M 189 195.96152422706632 C 188.76713943130764 198.55960043841964 190.27881166510986 202.65326263550733 186.77140877978286 200.77288412922687 C 183.2640058944559 198.89250562294637 183.2640058944559 205.90731139360034 186.77140877978286 204.28028701455383 C 190.27881166510986 202.65326263550733 188.6688676071605 206.35382907247958 189 208.9519052838329 M 211.5 195.96152422706632 C 211.70142866329746 198.55960043841964 209.11146013581003 202.7497371934691 212.618863021137 200.64631388211097 C 216.12626590646397 198.54289057075283 216.12626590646397 205.5576963414068 212.618863021137 204.15371676743794 C 209.11146013581003 202.7497371934691 211.04489742225152 206.35382907247958 211.5 208.9519052838329 M 87.75 215.4470958122162 C 87.67534579432899 218.0451720235695 89.06978784062059 221.7541023466914 85.56238495529361 219.67407845236337 C 82.05498206996664 217.59405455803534 82.05498206996664 224.60886032868927 85.56238495529361 223.18148133769034 C 89.06978784062059 221.7541023466914 87.50953916002754 225.83940065762943 87.75 228.43747686898274 M 110.25 215.4470958122162 C 110.42204817143758 218.0451720235695 108.08655781588052 222.22333100972133 111.5939607012075 220.13693315728918 C 115.10136358653446 218.05053530485705 115.10136358653446 225.065341075511 111.5939607012075 223.64433604261615 C 108.08655781588052 222.22333100972133 109.73417073441836 225.83940065762943 110.25 228.43747686898274 M 132.75 215.4470958122162 C 133.04090746209505 218.0451720235695 134.55196234335654 221.8385722599478 131.04455945802957 220.70288251709354 C 127.5371565727026 219.5671927742393 127.5371565727026 226.58199854489322 131.04455945802957 224.2102854024205 C 134.55196234335654 221.8385722599478 132.35448873234398 225.83940065762943 132.75 228.43747686898274 M 155.25 215.4470958122162 C 154.62784477625982 218.0451720235695 157.1673960490153 221.92998317816108 153.65999316368834 220.27797855835277 C 150.15259027836137 218.62597393854446 150.15259027836137 225.6407797091984 153.65999316368834 223.78538144367974 C 157.1673960490153 221.92998317816108 155.1039437814956 225.83940065762943 155.25 228.43747686898274 M 177.75 215.4470958122162 C 178.2922450557209 218.0451720235695 176.02171472407258 222.02986921401273 179.52911760939955 219.7671260051678 C 183.03652049472652 217.5043827963229 183.03652049472652 224.51918856697682 179.52911760939955 223.27452889049476 C 176.02171472407258 222.02986921401273 178.21966735914188 225.83940065762943 177.75 228.43747686898274 M 200.25 215.4470958122162 C 199.94890480437186 218.0451720235695 198.1311256565502 222.1774222247167 201.63852854187718 220.39645473896792 C 205.14593142720418 218.61548725321913 205.14593142720418 225.63029302387307 201.63852854187718 223.9038576242949 C 198.1311256565502 222.1774222247167 199.9189402004418 225.83940065762943 200.25 228.43747686898274 M 99 234.93266739736606 C 99.21271117496967 237.53074360871938 97.40071042535423 241.53105156835358 100.9081133106812 239.63302387791236 C 104.41551619600818 237.73499618747115 104.41551619600818 244.7498019581251 100.9081133106812 243.14042676323933 C 97.40071042535423 241.53105156835358 99.3688986355057 245.32497224277932 99 247.92304845413264 M 121.5 234.93266739736606 C 121.37962488197121 237.53074360871938 122.74872512381575 241.18046038331528 119.24132223848878 239.09673199858085 C 115.7339193531618 237.01300361384642 115.7339193531618 244.02780938450036 119.24132223848878 242.60413488390782 C 122.74872512381575 241.18046038331528 122.00065199604012 245.32497224277932 121.5 247.92304845413264 M 144 234.93266739736606 C 143.41202823882674 237.53074360871938 146.23442338974564 241.51929738365018 142.72702050441868 239.7618823902776 C 139.2196176190917 238.00446739690503 139.2196176190917 245.019273167559 142.72702050441868 243.2692852756046 C 146.23442338974564 241.51929738365018 144.61008582354748 245.32497224277932 144 247.92304845413264 M 166.5 234.93266739736606 C 166.30314618193367 237.53074360871938 164.84310897824872 242.4642390989695 168.3505118635757 240.2302413542656 C 171.8579147489027 237.9962436095617 171.8579147489027 245.01104938021564 168.3505118635757 243.73764423959258 C 164.84310897824872 242.4642390989695 166.97945302281732 245.32497224277932 166.5 247.92304845413264 M 189 234.93266739736606 C 188.43892683122837 237.53074360871938 187.50857188307845 242.07708046852528 191.0159747684054 240.2251066007892 C 194.52337765373238 238.37313273305307 194.52337765373238 245.38793850370703 191.0159747684054 243.73250948611616 C 187.50857188307845 242.07708046852528 189.59187664157506 245.32497224277932 189 247.92304845413264 "></path><path fill="none" stroke="Black" stroke-width="0.2" d="M 76.5 40.076951545867374 L 87.75 33.581761017484084 L 99 40.076951545867374 L 110.25 33.581761017484084 L 121.5 40.076951545867374 L 132.75 33.581761017484084 L 144 40.076951545867374 L 155.25 33.581761017484084 L 166.5 40.076951545867374 L 177.75 33.581761017484084 L 189 40.076951545867374 L 200.25 33.581761017484084 L 211.49999999999997 40.07695154586736 L 211.5 53.06733260263394 L 222.75 59.56252313101723 L 222.75 72.55290418778381 L 234 79.0480947161671 L 234 92.03847577293368 L 245.25 98.53366630131697 L 245.25 111.52404735808355 L 256.5 118.01923788646683 L 256.5 131.00961894323342 L 267.75 137.50480947161668 L 267.75 150.49519052838326 L 256.5 156.99038105676655 L 256.5 169.98076211353313 L 245.25 176.47595264191642 L 245.25 189.466333698683 L 234 195.9615242270663 L 234 208.95190528383287 L 222.75 215.44709581221616 L 222.75 228.43747686898274 L 211.5 234.93266739736603 L 211.5 247.9230484541326 L 200.25 254.4182389825159 L 189 247.92304845413264 L 177.75 254.4182389825159 L 166.5 247.92304845413264 L 155.25 254.4182389825159 L 144 247.92304845413264 L 132.75 254.4182389825159 L 121.50000000000001 247.92304845413264 L 110.25000000000001 254.4182389825159 L 99.00000000000001 247.92304845413264 L 87.75000000000001 254.4182389825159 L 76.50000000000006 247.92304845413267 L 76.50000000000006 234.9326673973661 L 65.25000000000004 228.4374768689828 L 65.25000000000004 215.44709581221622 L 54.00000000000003 208.95190528383296 L 54.00000000000003 195.96152422706635 L 42.75000000000003 189.46633369868306 L 42.750000000000014 176.47595264191648 L 31.500000000000014 169.98076211353322 L 31.5 156.99038105676664 L 20.25 150.49519052838335 L 20.250000000000014 137.5048094716168 L 31.5 131.0096189432335 L 31.5 118.01923788646693 L 42.749999999999986 111.52404735808364 L 42.74999999999997 98.53366630131706 L 53.99999999999997 92.03847577293377 L 53.99999999999997 79.04809471616717 L 65.24999999999996 72.55290418778388 L 65.24999999999994 59.56252313101729 L 76.49999999999994 53.067332602633996 L 76.49999999999993 40.076951545867416 "></path></svg>