<?xml version="1.0" encoding="UTF-8"?>
 
<!-- Created by Vectric (http://www.vectric.com/) -->
<svg width="14.00000000in" height="14.00000000in" viewBox="0 0 14.00000000 14.00000000" id="svg2" version="1.1"
     xmlns="http://www.w3.org/2000/svg"
     xmlns:inkscape="http://www.inkscape.org/namespaces/inkscape">
    <g inkscape:groupmode="layer" id="85667243-1302-4a85-b3ac-c7bf39b332ec" inkscape:label="Toolpath Previews"/>
    <g inkscape:groupmode="layer" id="d8fbbb01-0e9b-4646-a26f-868241f747be" inkscape:label="Outer Circle">
        <path style="fill:none;stroke-width:0.010000;stroke-linecap:round;stroke-linejoin:round;stroke-opacity:1;stroke:#000000;" d="M 7.000000,0.000000 A 7.000000,7.000000 0 0,0 0.000000,7.000000 A 7.000000,7.000000 0 0,0 7.000000,14.000000 A 7.000000,7.000000 0 0,0 14.000000,7.000000 A 7.000000,7.000000 0 0,0 7.000000,0.000000 "/>
    </g>
    <g inkscape:groupmode="layer" id="176f4b63-3806-48d0-945a-68fad0fbc8ce" inkscape:label="Field">
        <path style="fill:none;stroke-width:0.010000;stroke-linecap:round;stroke-linejoin:round;stroke-opacity:1;stroke:#000000;" d="M 6.999994,6.833561 A 0.168944,0.168944 0 0,0 6.831050,7.002505 A 0.168944,0.168944 0 0,0 6.999994,7.171449 A 0.168944,0.168944 0 0,0 7.168938,7.002505 A 0.168944,0.168944 0 0,0 6.999994,6.833561 "/>
        <path style="fill:none;stroke-width:0.010000;stroke-linecap:round;stroke-linejoin:round;stroke-opacity:1;stroke:#000000;" d="M 7.460189,7.630641 A 0.168944,0.168944 0 0,0 7.291245,7.799585 A 0.168944,0.168944 0 0,0 7.460189,7.968529 A 0.168944,0.168944 0 0,0 7.629134,7.799585 A 0.168944,0.168944 0 0,0 7.460189,7.630641 "/>
        <path style="fill:none;stroke-width:0.010000;stroke-linecap:round;stroke-linejoin:round;stroke-opacity:1;stroke:#000000;" d="M 7.920385,8.427721 A 0.168944,0.168944 0 0,0 7.751440,8.596665 A 0.168944,0.168944 0 0,0 7.920385,8.765609 A 0.168944,0.168944 0 0,0 8.089329,8.596665 A 0.168944,0.168944 0 0,0 7.920385,8.427721 "/>
        <path style="fill:none;stroke-width:0.010000;stroke-linecap:round;stroke-linejoin:round;stroke-opacity:1;stroke:#000000;" d="M 8.380580,9.224800 A 0.168944,0.168944 0 0,0 8.211636,9.393744 A 0.168944,0.168944 0 0,0 8.380580,9.562689 A 0.168944,0.168944 0 0,0 8.549524,9.393744 A 0.168944,0.168944 0 0,0 8.380580,9.224800 "/>
        <path style="fill:none;stroke-width:0.010000;stroke-linecap:round;stroke-linejoin:round;stroke-opacity:1;stroke:#000000;" d="M 8.840775,10.021880 A 0.168944,0.168944 0 0,0 8.671831,10.190824 A 0.168944,0.168944 0 0,0 8.840775,10.359768 A 0.168944,0.168944 0 0,0 9.009719,10.190824 A 0.168944,0.168944 0 0,0 8.840775,10.021880 "/>
        <path style="fill:none;stroke-width:0.010000;stroke-linecap:round;stroke-linejoin:round;stroke-opacity:1;stroke:#000000;" d="M 6.539799,6.036481 A 0.168944,0.168944 0 0,0 6.370855,6.205425 A 0.168944,0.168944 0 0,0 6.539799,6.374370 A 0.168944,0.168944 0 0,0 6.708743,6.205425 A 0.168944,0.168944 0 0,0 6.539799,6.036481 "/>
        <path style="fill:none;stroke-width:0.010000;stroke-linecap:round;stroke-linejoin:round;stroke-opacity:1;stroke:#000000;" d="M 6.079604,5.239402 A 0.168944,0.168944 0 0,0 5.910660,5.408346 A 0.168944,0.168944 0 0,0 6.079604,5.577290 A 0.168944,0.168944 0 0,0 6.248548,5.408346 A 0.168944,0.168944 0 0,0 6.079604,5.239402 "/>
        <path style="fill:none;stroke-width:0.010000;stroke-linecap:round;stroke-linejoin:round;stroke-opacity:1;stroke:#000000;" d="M 5.619408,4.442322 A 0.168944,0.168944 0 0,0 5.450464,4.611266 A 0.168944,0.168944 0 0,0 5.619408,4.780210 A 0.168944,0.168944 0 0,0 5.788353,4.611266 A 0.168944,0.168944 0 0,0 5.619408,4.442322 "/>
        <path style="fill:none;stroke-width:0.010000;stroke-linecap:round;stroke-linejoin:round;stroke-opacity:1;stroke:#000000;" d="M 5.159213,3.645242 A 0.168944,0.168944 0 0,0 4.990269,3.814186 A 0.168944,0.168944 0 0,0 5.159213,3.983130 A 0.168944,0.168944 0 0,0 5.328157,3.814186 A 0.168944,0.168944 0 0,0 5.159213,3.645242 "/>
        <path style="fill:none;stroke-width:0.010000;stroke-linecap:round;stroke-linejoin:round;stroke-opacity:1;stroke:#000000;" d="M 4.239518,3.644856 A 0.168944,0.168944 0 0,0 4.070574,3.813800 A 0.168944,0.168944 0 0,0 4.239518,3.982744 A 0.168944,0.168944 0 0,0 4.408462,3.813800 A 0.168944,0.168944 0 0,0 4.239518,3.644856 "/>
        <path style="fill:none;stroke-width:0.010000;stroke-linecap:round;stroke-linejoin:round;stroke-opacity:1;stroke:#000000;" d="M 4.699713,4.441936 A 0.168944,0.168944 0 0,0 4.530769,4.610880 A 0.168944,0.168944 0 0,0 4.699713,4.779824 A 0.168944,0.168944 0 0,0 4.868657,4.610880 A 0.168944,0.168944 0 0,0 4.699713,4.441936 "/>
        <path style="fill:none;stroke-width:0.010000;stroke-linecap:round;stroke-linejoin:round;stroke-opacity:1;stroke:#000000;" d="M 5.159908,5.239015 A 0.168944,0.168944 0 0,0 4.990964,5.407960 A 0.168944,0.168944 0 0,0 5.159908,5.576904 A 0.168944,0.168944 0 0,0 5.328852,5.407960 A 0.168944,0.168944 0 0,0 5.159908,5.239015 "/>
        <path style="fill:none;stroke-width:0.010000;stroke-linecap:round;stroke-linejoin:round;stroke-opacity:1;stroke:#000000;" d="M 5.620103,6.036095 A 0.168944,0.168944 0 0,0 5.451159,6.205039 A 0.168944,0.168944 0 0,0 5.620103,6.373984 A 0.168944,0.168944 0 0,0 5.789048,6.205039 A 0.168944,0.168944 0 0,0 5.620103,6.036095 "/>
        <path style="fill:none;stroke-width:0.010000;stroke-linecap:round;stroke-linejoin:round;stroke-opacity:1;stroke:#000000;" d="M 6.080299,6.833175 A 0.168944,0.168944 0 0,0 5.911354,7.002119 A 0.168944,0.168944 0 0,0 6.080299,7.171063 A 0.168944,0.168944 0 0,0 6.249243,7.002119 A 0.168944,0.168944 0 0,0 6.080299,6.833175 "/>
        <path style="fill:none;stroke-width:0.010000;stroke-linecap:round;stroke-linejoin:round;stroke-opacity:1;stroke:#000000;" d="M 6.540494,7.630255 A 0.168944,0.168944 0 0,0 6.371550,7.799199 A 0.168944,0.168944 0 0,0 6.540494,7.968143 A 0.168944,0.168944 0 0,0 6.709438,7.799199 A 0.168944,0.168944 0 0,0 6.540494,7.630255 "/>
        <path style="fill:none;stroke-width:0.010000;stroke-linecap:round;stroke-linejoin:round;stroke-opacity:1;stroke:#000000;" d="M 7.000689,8.427334 A 0.168944,0.168944 0 0,0 6.831745,8.596279 A 0.168944,0.168944 0 0,0 7.000689,8.765223 A 0.168944,0.168944 0 0,0 7.169633,8.596279 A 0.168944,0.168944 0 0,0 7.000689,8.427334 "/>
        <path style="fill:none;stroke-width:0.010000;stroke-linecap:round;stroke-linejoin:round;stroke-opacity:1;stroke:#000000;" d="M 7.460884,9.224414 A 0.168944,0.168944 0 0,0 7.291940,9.393358 A 0.168944,0.168944 0 0,0 7.460884,9.562302 A 0.168944,0.168944 0 0,0 7.629828,9.393358 A 0.168944,0.168944 0 0,0 7.460884,9.224414 "/>
        <path style="fill:none;stroke-width:0.010000;stroke-linecap:round;stroke-linejoin:round;stroke-opacity:1;stroke:#000000;" d="M 7.921080,10.021494 A 0.168944,0.168944 0 0,0 7.752135,10.190438 A 0.168944,0.168944 0 0,0 7.921080,10.359382 A 0.168944,0.168944 0 0,0 8.090024,10.190438 A 0.168944,0.168944 0 0,0 7.921080,10.021494 "/>
        <path style="fill:none;stroke-width:0.010000;stroke-linecap:round;stroke-linejoin:round;stroke-opacity:1;stroke:#000000;" d="M 8.381275,10.818574 A 0.168944,0.168944 0 0,0 8.212331,10.987518 A 0.168944,0.168944 0 0,0 8.381275,11.156462 A 0.168944,0.168944 0 0,0 8.550219,10.987518 A 0.168944,0.168944 0 0,0 8.381275,10.818574 "/>
        <path style="fill:none;stroke-width:0.010000;stroke-linecap:round;stroke-linejoin:round;stroke-opacity:1;stroke:#000000;" d="M 7.921697,11.615267 A 0.168944,0.168944 0 0,0 7.752753,11.784211 A 0.168944,0.168944 0 0,0 7.921697,11.953156 A 0.168944,0.168944 0 0,0 8.090641,11.784211 A 0.168944,0.168944 0 0,0 7.921697,11.615267 "/>
        <path style="fill:none;stroke-width:0.010000;stroke-linecap:round;stroke-linejoin:round;stroke-opacity:1;stroke:#000000;" d="M 7.461502,10.818188 A 0.168944,0.168944 0 0,0 7.292558,10.987132 A 0.168944,0.168944 0 0,0 7.461502,11.156076 A 0.168944,0.168944 0 0,0 7.630446,10.987132 A 0.168944,0.168944 0 0,0 7.461502,10.818188 "/>
        <path style="fill:none;stroke-width:0.010000;stroke-linecap:round;stroke-linejoin:round;stroke-opacity:1;stroke:#000000;" d="M 7.001307,10.021108 A 0.168944,0.168944 0 0,0 6.832363,10.190052 A 0.168944,0.168944 0 0,0 7.001307,10.358996 A 0.168944,0.168944 0 0,0 7.170251,10.190052 A 0.168944,0.168944 0 0,0 7.001307,10.021108 "/>
        <path style="fill:none;stroke-width:0.010000;stroke-linecap:round;stroke-linejoin:round;stroke-opacity:1;stroke:#000000;" d="M 6.541112,9.224028 A 0.168944,0.168944 0 0,0 6.372167,9.392972 A 0.168944,0.168944 0 0,0 6.541112,9.561916 A 0.168944,0.168944 0 0,0 6.710056,9.392972 A 0.168944,0.168944 0 0,0 6.541112,9.224028 "/>
        <path style="fill:none;stroke-width:0.010000;stroke-linecap:round;stroke-linejoin:round;stroke-opacity:1;stroke:#000000;" d="M 6.080916,8.426948 A 0.168944,0.168944 0 0,0 5.911972,8.595893 A 0.168944,0.168944 0 0,0 6.080916,8.764837 A 0.168944,0.168944 0 0,0 6.249861,8.595893 A 0.168944,0.168944 0 0,0 6.080916,8.426948 "/>
        <path style="fill:none;stroke-width:0.010000;stroke-linecap:round;stroke-linejoin:round;stroke-opacity:1;stroke:#000000;" d="M 5.620721,7.629869 A 0.168944,0.168944 0 0,0 5.451777,7.798813 A 0.168944,0.168944 0 0,0 5.620721,7.967757 A 0.168944,0.168944 0 0,0 5.789665,7.798813 A 0.168944,0.168944 0 0,0 5.620721,7.629869 "/>
        <path style="fill:none;stroke-width:0.010000;stroke-linecap:round;stroke-linejoin:round;stroke-opacity:1;stroke:#000000;" d="M 5.160526,6.832789 A 0.168944,0.168944 0 0,0 4.991582,7.001733 A 0.168944,0.168944 0 0,0 5.160526,7.170677 A 0.168944,0.168944 0 0,0 5.329470,7.001733 A 0.168944,0.168944 0 0,0 5.160526,6.832789 "/>
        <path style="fill:none;stroke-width:0.010000;stroke-linecap:round;stroke-linejoin:round;stroke-opacity:1;stroke:#000000;" d="M 4.700331,6.035709 A 0.168944,0.168944 0 0,0 4.531387,6.204653 A 0.168944,0.168944 0 0,0 4.700331,6.373597 A 0.168944,0.168944 0 0,0 4.869275,6.204653 A 0.168944,0.168944 0 0,0 4.700331,6.035709 "/>
        <path style="fill:none;stroke-width:0.010000;stroke-linecap:round;stroke-linejoin:round;stroke-opacity:1;stroke:#000000;" d="M 4.240135,5.238629 A 0.168944,0.168944 0 0,0 4.071191,5.407574 A 0.168944,0.168944 0 0,0 4.240135,5.576518 A 0.168944,0.168944 0 0,0 4.409080,5.407574 A 0.168944,0.168944 0 0,0 4.240135,5.238629 "/>
        <path style="fill:none;stroke-width:0.010000;stroke-linecap:round;stroke-linejoin:round;stroke-opacity:1;stroke:#000000;" d="M 3.779940,4.441550 A 0.168944,0.168944 0 0,0 3.610996,4.610494 A 0.168944,0.168944 0 0,0 3.779940,4.779438 A 0.168944,0.168944 0 0,0 3.948884,4.610494 A 0.168944,0.168944 0 0,0 3.779940,4.441550 "/>
        <path style="fill:none;stroke-width:0.010000;stroke-linecap:round;stroke-linejoin:round;stroke-opacity:1;stroke:#000000;" d="M 3.319745,3.644470 A 0.168944,0.168944 0 0,0 3.150801,3.813414 A 0.168944,0.168944 0 0,0 3.319745,3.982358 A 0.168944,0.168944 0 0,0 3.488689,3.813414 A 0.168944,0.168944 0 0,0 3.319745,3.644470 "/>
        <path style="fill:none;stroke-width:0.010000;stroke-linecap:round;stroke-linejoin:round;stroke-opacity:1;stroke:#000000;" d="M 2.400050,3.644084 A 0.168944,0.168944 0 0,0 2.231105,3.813028 A 0.168944,0.168944 0 0,0 2.400050,3.981972 A 0.168944,0.168944 0 0,0 2.568994,3.813028 A 0.168944,0.168944 0 0,0 2.400050,3.644084 "/>
        <path style="fill:none;stroke-width:0.010000;stroke-linecap:round;stroke-linejoin:round;stroke-opacity:1;stroke:#000000;" d="M 2.860245,4.441164 A 0.168944,0.168944 0 0,0 2.691301,4.610108 A 0.168944,0.168944 0 0,0 2.860245,4.779052 A 0.168944,0.168944 0 0,0 3.029189,4.610108 A 0.168944,0.168944 0 0,0 2.860245,4.441164 "/>
        <path style="fill:none;stroke-width:0.010000;stroke-linecap:round;stroke-linejoin:round;stroke-opacity:1;stroke:#000000;" d="M 3.320440,5.238243 A 0.168944,0.168944 0 0,0 3.151496,5.407187 A 0.168944,0.168944 0 0,0 3.320440,5.576132 A 0.168944,0.168944 0 0,0 3.489384,5.407187 A 0.168944,0.168944 0 0,0 3.320440,5.238243 "/>
        <path style="fill:none;stroke-width:0.010000;stroke-linecap:round;stroke-linejoin:round;stroke-opacity:1;stroke:#000000;" d="M 3.780635,6.035323 A 0.168944,0.168944 0 0,0 3.611691,6.204267 A 0.168944,0.168944 0 0,0 3.780635,6.373211 A 0.168944,0.168944 0 0,0 3.949579,6.204267 A 0.168944,0.168944 0 0,0 3.780635,6.035323 "/>
        <path style="fill:none;stroke-width:0.010000;stroke-linecap:round;stroke-linejoin:round;stroke-opacity:1;stroke:#000000;" d="M 4.240830,6.832403 A 0.168944,0.168944 0 0,0 4.071886,7.001347 A 0.168944,0.168944 0 0,0 4.240830,7.170291 A 0.168944,0.168944 0 0,0 4.409775,7.001347 A 0.168944,0.168944 0 0,0 4.240830,6.832403 "/>
        <path style="fill:none;stroke-width:0.010000;stroke-linecap:round;stroke-linejoin:round;stroke-opacity:1;stroke:#000000;" d="M 4.701026,7.629483 A 0.168944,0.168944 0 0,0 4.532081,7.798427 A 0.168944,0.168944 0 0,0 4.701026,7.967371 A 0.168944,0.168944 0 0,0 4.869970,7.798427 A 0.168944,0.168944 0 0,0 4.701026,7.629483 "/>
        <path style="fill:none;stroke-width:0.010000;stroke-linecap:round;stroke-linejoin:round;stroke-opacity:1;stroke:#000000;" d="M 5.161221,8.426562 A 0.168944,0.168944 0 0,0 4.992277,8.595506 A 0.168944,0.168944 0 0,0 5.161221,8.764451 A 0.168944,0.168944 0 0,0 5.330165,8.595506 A 0.168944,0.168944 0 0,0 5.161221,8.426562 "/>
        <path style="fill:none;stroke-width:0.010000;stroke-linecap:round;stroke-linejoin:round;stroke-opacity:1;stroke:#000000;" d="M 5.621416,9.223642 A 0.168944,0.168944 0 0,0 5.452472,9.392586 A 0.168944,0.168944 0 0,0 5.621416,9.561530 A 0.168944,0.168944 0 0,0 5.790360,9.392586 A 0.168944,0.168944 0 0,0 5.621416,9.223642 "/>
        <path style="fill:none;stroke-width:0.010000;stroke-linecap:round;stroke-linejoin:round;stroke-opacity:1;stroke:#000000;" d="M 6.081611,10.020722 A 0.168944,0.168944 0 0,0 5.912667,10.189666 A 0.168944,0.168944 0 0,0 6.081611,10.358610 A 0.168944,0.168944 0 0,0 6.250555,10.189666 A 0.168944,0.168944 0 0,0 6.081611,10.020722 "/>
        <path style="fill:none;stroke-width:0.010000;stroke-linecap:round;stroke-linejoin:round;stroke-opacity:1;stroke:#000000;" d="M 6.541807,10.817802 A 0.168944,0.168944 0 0,0 6.372862,10.986746 A 0.168944,0.168944 0 0,0 6.541807,11.155690 A 0.168944,0.168944 0 0,0 6.710751,10.986746 A 0.168944,0.168944 0 0,0 6.541807,10.817802 "/>
        <path style="fill:none;stroke-width:0.010000;stroke-linecap:round;stroke-linejoin:round;stroke-opacity:1;stroke:#000000;" d="M 7.002002,11.614881 A 0.168944,0.168944 0 0,0 6.833058,11.783825 A 0.168944,0.168944 0 0,0 7.002002,11.952770 A 0.168944,0.168944 0 0,0 7.170946,11.783825 A 0.168944,0.168944 0 0,0 7.002002,11.614881 "/>
        <path style="fill:none;stroke-width:0.010000;stroke-linecap:round;stroke-linejoin:round;stroke-opacity:1;stroke:#000000;" d="M 7.462197,12.411961 A 0.168944,0.168944 0 0,0 7.293253,12.580905 A 0.168944,0.168944 0 0,0 7.462197,12.749849 A 0.168944,0.168944 0 0,0 7.631141,12.580905 A 0.168944,0.168944 0 0,0 7.462197,12.411961 "/>
        <path style="fill:none;stroke-width:0.010000;stroke-linecap:round;stroke-linejoin:round;stroke-opacity:1;stroke:#000000;" d="M 7.011267,13.203636 A 0.168944,0.168944 0 0,0 6.842323,13.372580 A 0.168944,0.168944 0 0,0 7.011267,13.541524 A 0.168944,0.168944 0 0,0 7.180212,13.372580 A 0.168944,0.168944 0 0,0 7.011267,13.203636 "/>
        <path style="fill:none;stroke-width:0.010000;stroke-linecap:round;stroke-linejoin:round;stroke-opacity:1;stroke:#000000;" d="M 6.542501,12.411575 A 0.168944,0.168944 0 0,0 6.373557,12.580519 A 0.168944,0.168944 0 0,0 6.542501,12.749463 A 0.168944,0.168944 0 0,0 6.711446,12.580519 A 0.168944,0.168944 0 0,0 6.542501,12.411575 "/>
        <path style="fill:none;stroke-width:0.010000;stroke-linecap:round;stroke-linejoin:round;stroke-opacity:1;stroke:#000000;" d="M 6.082306,11.614495 A 0.168944,0.168944 0 0,0 5.913362,11.783439 A 0.168944,0.168944 0 0,0 6.082306,11.952384 A 0.168944,0.168944 0 0,0 6.251250,11.783439 A 0.168944,0.168944 0 0,0 6.082306,11.614495 "/>
        <path style="fill:none;stroke-width:0.010000;stroke-linecap:round;stroke-linejoin:round;stroke-opacity:1;stroke:#000000;" d="M 5.622111,10.817415 A 0.168944,0.168944 0 0,0 5.453167,10.986360 A 0.168944,0.168944 0 0,0 5.622111,11.155304 A 0.168944,0.168944 0 0,0 5.791055,10.986360 A 0.168944,0.168944 0 0,0 5.622111,10.817415 "/>
        <path style="fill:none;stroke-width:0.010000;stroke-linecap:round;stroke-linejoin:round;stroke-opacity:1;stroke:#000000;" d="M 5.161916,10.020336 A 0.168944,0.168944 0 0,0 4.992972,10.189280 A 0.168944,0.168944 0 0,0 5.161916,10.358224 A 0.168944,0.168944 0 0,0 5.330860,10.189280 A 0.168944,0.168944 0 0,0 5.161916,10.020336 "/>
        <path style="fill:none;stroke-width:0.010000;stroke-linecap:round;stroke-linejoin:round;stroke-opacity:1;stroke:#000000;" d="M 4.701721,9.223256 A 0.168944,0.168944 0 0,0 4.532776,9.392200 A 0.168944,0.168944 0 0,0 4.701721,9.561144 A 0.168944,0.168944 0 0,0 4.870665,9.392200 A 0.168944,0.168944 0 0,0 4.701721,9.223256 "/>
        <path style="fill:none;stroke-width:0.010000;stroke-linecap:round;stroke-linejoin:round;stroke-opacity:1;stroke:#000000;" d="M 4.241525,8.426176 A 0.168944,0.168944 0 0,0 4.072581,8.595120 A 0.168944,0.168944 0 0,0 4.241525,8.764065 A 0.168944,0.168944 0 0,0 4.410469,8.595120 A 0.168944,0.168944 0 0,0 4.241525,8.426176 "/>
        <path style="fill:none;stroke-width:0.010000;stroke-linecap:round;stroke-linejoin:round;stroke-opacity:1;stroke:#000000;" d="M 3.781330,7.629096 A 0.168944,0.168944 0 0,0 3.612386,7.798041 A 0.168944,0.168944 0 0,0 3.781330,7.966985 A 0.168944,0.168944 0 0,0 3.950274,7.798041 A 0.168944,0.168944 0 0,0 3.781330,7.629096 "/>
        <path style="fill:none;stroke-width:0.010000;stroke-linecap:round;stroke-linejoin:round;stroke-opacity:1;stroke:#000000;" d="M 3.321135,6.832017 A 0.168944,0.168944 0 0,0 3.152191,7.000961 A 0.168944,0.168944 0 0,0 3.321135,7.169905 A 0.168944,0.168944 0 0,0 3.490079,7.000961 A 0.168944,0.168944 0 0,0 3.321135,6.832017 "/>
        <path style="fill:none;stroke-width:0.010000;stroke-linecap:round;stroke-linejoin:round;stroke-opacity:1;stroke:#000000;" d="M 2.860940,6.034937 A 0.168944,0.168944 0 0,0 2.691996,6.203881 A 0.168944,0.168944 0 0,0 2.860940,6.372825 A 0.168944,0.168944 0 0,0 3.029884,6.203881 A 0.168944,0.168944 0 0,0 2.860940,6.034937 "/>
        <path style="fill:none;stroke-width:0.010000;stroke-linecap:round;stroke-linejoin:round;stroke-opacity:1;stroke:#000000;" d="M 2.400744,5.237857 A 0.168944,0.168944 0 0,0 2.231800,5.406801 A 0.168944,0.168944 0 0,0 2.400744,5.575746 A 0.168944,0.168944 0 0,0 2.569689,5.406801 A 0.168944,0.168944 0 0,0 2.400744,5.237857 "/>
        <path style="fill:none;stroke-width:0.010000;stroke-linecap:round;stroke-linejoin:round;stroke-opacity:1;stroke:#000000;" d="M 1.940549,4.440778 A 0.168944,0.168944 0 0,0 1.771605,4.609722 A 0.168944,0.168944 0 0,0 1.940549,4.778666 A 0.168944,0.168944 0 0,0 2.109493,4.609722 A 0.168944,0.168944 0 0,0 1.940549,4.440778 "/>
        <path style="fill:none;stroke-width:0.010000;stroke-linecap:round;stroke-linejoin:round;stroke-opacity:1;stroke:#000000;" d="M 1.480354,3.643698 A 0.168944,0.168944 0 0,0 1.311410,3.812642 A 0.168944,0.168944 0 0,0 1.480354,3.981586 A 0.168944,0.168944 0 0,0 1.649298,3.812642 A 0.168944,0.168944 0 0,0 1.480354,3.643698 "/>
        <path style="fill:none;stroke-width:0.010000;stroke-linecap:round;stroke-linejoin:round;stroke-opacity:1;stroke:#000000;" d="M 3.781948,9.222870 A 0.168944,0.168944 0 0,0 3.613004,9.391814 A 0.168944,0.168944 0 0,0 3.781948,9.560758 A 0.168944,0.168944 0 0,0 3.950892,9.391814 A 0.168944,0.168944 0 0,0 3.781948,9.222870 "/>
        <path style="fill:none;stroke-width:0.010000;stroke-linecap:round;stroke-linejoin:round;stroke-opacity:1;stroke:#000000;" d="M 4.242143,10.019950 A 0.168944,0.168944 0 0,0 4.073199,10.188894 A 0.168944,0.168944 0 0,0 4.242143,10.357838 A 0.168944,0.168944 0 0,0 4.411087,10.188894 A 0.168944,0.168944 0 0,0 4.242143,10.019950 "/>
        <path style="fill:none;stroke-width:0.010000;stroke-linecap:round;stroke-linejoin:round;stroke-opacity:1;stroke:#000000;" d="M 3.321753,8.425790 A 0.168944,0.168944 0 0,0 3.152808,8.594734 A 0.168944,0.168944 0 0,0 3.321753,8.763678 A 0.168944,0.168944 0 0,0 3.490697,8.594734 A 0.168944,0.168944 0 0,0 3.321753,8.425790 "/>
        <path style="fill:none;stroke-width:0.010000;stroke-linecap:round;stroke-linejoin:round;stroke-opacity:1;stroke:#000000;" d="M 2.861557,7.628710 A 0.168944,0.168944 0 0,0 2.692613,7.797655 A 0.168944,0.168944 0 0,0 2.861557,7.966599 A 0.168944,0.168944 0 0,0 3.030502,7.797655 A 0.168944,0.168944 0 0,0 2.861557,7.628710 "/>
        <path style="fill:none;stroke-width:0.010000;stroke-linecap:round;stroke-linejoin:round;stroke-opacity:1;stroke:#000000;" d="M 2.402057,8.425404 A 0.168944,0.168944 0 0,0 2.233113,8.594348 A 0.168944,0.168944 0 0,0 2.402057,8.763292 A 0.168944,0.168944 0 0,0 2.571001,8.594348 A 0.168944,0.168944 0 0,0 2.402057,8.425404 "/>
        <path style="fill:none;stroke-width:0.010000;stroke-linecap:round;stroke-linejoin:round;stroke-opacity:1;stroke:#000000;" d="M 2.862252,9.222484 A 0.168944,0.168944 0 0,0 2.693308,9.391428 A 0.168944,0.168944 0 0,0 2.862252,9.560372 A 0.168944,0.168944 0 0,0 3.031196,9.391428 A 0.168944,0.168944 0 0,0 2.862252,9.222484 "/>
        <path style="fill:none;stroke-width:0.010000;stroke-linecap:round;stroke-linejoin:round;stroke-opacity:1;stroke:#000000;" d="M 3.322448,10.019564 A 0.168944,0.168944 0 0,0 3.153503,10.188508 A 0.168944,0.168944 0 0,0 3.322448,10.357452 A 0.168944,0.168944 0 0,0 3.491392,10.188508 A 0.168944,0.168944 0 0,0 3.322448,10.019564 "/>
        <path style="fill:none;stroke-width:0.010000;stroke-linecap:round;stroke-linejoin:round;stroke-opacity:1;stroke:#000000;" d="M 2.402752,10.019178 A 0.168944,0.168944 0 0,0 2.233808,10.188122 A 0.168944,0.168944 0 0,0 2.402752,10.357066 A 0.168944,0.168944 0 0,0 2.571696,10.188122 A 0.168944,0.168944 0 0,0 2.402752,10.019178 "/>
        <path style="fill:none;stroke-width:0.010000;stroke-linecap:round;stroke-linejoin:round;stroke-opacity:1;stroke:#000000;" d="M 1.942557,9.222098 A 0.168944,0.168944 0 0,0 1.773613,9.391042 A 0.168944,0.168944 0 0,0 1.942557,9.559986 A 0.168944,0.168944 0 0,0 2.111501,9.391042 A 0.168944,0.168944 0 0,0 1.942557,9.222098 "/>
        <path style="fill:none;stroke-width:0.010000;stroke-linecap:round;stroke-linejoin:round;stroke-opacity:1;stroke:#000000;" d="M 1.482979,10.018791 A 0.168944,0.168944 0 0,0 1.314035,10.187736 A 0.168944,0.168944 0 0,0 1.482979,10.356680 A 0.168944,0.168944 0 0,0 1.651923,10.187736 A 0.168944,0.168944 0 0,0 1.482979,10.018791 "/>
        <path style="fill:none;stroke-width:0.010000;stroke-linecap:round;stroke-linejoin:round;stroke-opacity:1;stroke:#000000;" d="M 9.760471,10.022266 A 0.168944,0.168944 0 0,0 9.591526,10.191210 A 0.168944,0.168944 0 0,0 9.760471,10.360154 A 0.168944,0.168944 0 0,0 9.929415,10.191210 A 0.168944,0.168944 0 0,0 9.760471,10.022266 "/>
        <path style="fill:none;stroke-width:0.010000;stroke-linecap:round;stroke-linejoin:round;stroke-opacity:1;stroke:#000000;" d="M 9.300275,9.225186 A 0.168944,0.168944 0 0,0 9.131331,9.394130 A 0.168944,0.168944 0 0,0 9.300275,9.563075 A 0.168944,0.168944 0 0,0 9.469219,9.394130 A 0.168944,0.168944 0 0,0 9.300275,9.225186 "/>
        <path style="fill:none;stroke-width:0.010000;stroke-linecap:round;stroke-linejoin:round;stroke-opacity:1;stroke:#000000;" d="M 8.840080,8.428107 A 0.168944,0.168944 0 0,0 8.671136,8.597051 A 0.168944,0.168944 0 0,0 8.840080,8.765995 A 0.168944,0.168944 0 0,0 9.009024,8.597051 A 0.168944,0.168944 0 0,0 8.840080,8.428107 "/>
        <path style="fill:none;stroke-width:0.010000;stroke-linecap:round;stroke-linejoin:round;stroke-opacity:1;stroke:#000000;" d="M 8.379885,7.631027 A 0.168944,0.168944 0 0,0 8.210941,7.799971 A 0.168944,0.168944 0 0,0 8.379885,7.968915 A 0.168944,0.168944 0 0,0 8.548829,7.799971 A 0.168944,0.168944 0 0,0 8.379885,7.631027 "/>
        <path style="fill:none;stroke-width:0.010000;stroke-linecap:round;stroke-linejoin:round;stroke-opacity:1;stroke:#000000;" d="M 7.919690,6.833947 A 0.168944,0.168944 0 0,0 7.750746,7.002891 A 0.168944,0.168944 0 0,0 7.919690,7.171835 A 0.168944,0.168944 0 0,0 8.088634,7.002891 A 0.168944,0.168944 0 0,0 7.919690,6.833947 "/>
        <path style="fill:none;stroke-width:0.010000;stroke-linecap:round;stroke-linejoin:round;stroke-opacity:1;stroke:#000000;" d="M 7.459494,6.036867 A 0.168944,0.168944 0 0,0 7.290550,6.205812 A 0.168944,0.168944 0 0,0 7.459494,6.374756 A 0.168944,0.168944 0 0,0 7.628439,6.205812 A 0.168944,0.168944 0 0,0 7.459494,6.036867 "/>
        <path style="fill:none;stroke-width:0.010000;stroke-linecap:round;stroke-linejoin:round;stroke-opacity:1;stroke:#000000;" d="M 6.999299,5.239788 A 0.168944,0.168944 0 0,0 6.830355,5.408732 A 0.168944,0.168944 0 0,0 6.999299,5.577676 A 0.168944,0.168944 0 0,0 7.168243,5.408732 A 0.168944,0.168944 0 0,0 6.999299,5.239788 "/>
        <path style="fill:none;stroke-width:0.010000;stroke-linecap:round;stroke-linejoin:round;stroke-opacity:1;stroke:#000000;" d="M 6.539104,4.442708 A 0.168944,0.168944 0 0,0 6.370160,4.611652 A 0.168944,0.168944 0 0,0 6.539104,4.780596 A 0.168944,0.168944 0 0,0 6.708048,4.611652 A 0.168944,0.168944 0 0,0 6.539104,4.442708 "/>
        <path style="fill:none;stroke-width:0.010000;stroke-linecap:round;stroke-linejoin:round;stroke-opacity:1;stroke:#000000;" d="M 6.078909,3.645628 A 0.168944,0.168944 0 0,0 5.909965,3.814572 A 0.168944,0.168944 0 0,0 6.078909,3.983516 A 0.168944,0.168944 0 0,0 6.247853,3.814572 A 0.168944,0.168944 0 0,0 6.078909,3.645628 "/>
        <path style="fill:none;stroke-width:0.010000;stroke-linecap:round;stroke-linejoin:round;stroke-opacity:1;stroke:#000000;" d="M 5.618714,2.848548 A 0.168944,0.168944 0 0,0 5.449769,3.017493 A 0.168944,0.168944 0 0,0 5.618714,3.186437 A 0.168944,0.168944 0 0,0 5.787658,3.017493 A 0.168944,0.168944 0 0,0 5.618714,2.848548 "/>
        <path style="fill:none;stroke-width:0.010000;stroke-linecap:round;stroke-linejoin:round;stroke-opacity:1;stroke:#000000;" d="M 6.078291,2.051855 A 0.168944,0.168944 0 0,0 5.909347,2.220799 A 0.168944,0.168944 0 0,0 6.078291,2.389743 A 0.168944,0.168944 0 0,0 6.247235,2.220799 A 0.168944,0.168944 0 0,0 6.078291,2.051855 "/>
        <path style="fill:none;stroke-width:0.010000;stroke-linecap:round;stroke-linejoin:round;stroke-opacity:1;stroke:#000000;" d="M 6.538486,2.848934 A 0.168944,0.168944 0 0,0 6.369542,3.017879 A 0.168944,0.168944 0 0,0 6.538486,3.186823 A 0.168944,0.168944 0 0,0 6.707430,3.017879 A 0.168944,0.168944 0 0,0 6.538486,2.848934 "/>
        <path style="fill:none;stroke-width:0.010000;stroke-linecap:round;stroke-linejoin:round;stroke-opacity:1;stroke:#000000;" d="M 6.998682,3.646014 A 0.168944,0.168944 0 0,0 6.829737,3.814958 A 0.168944,0.168944 0 0,0 6.998682,3.983903 A 0.168944,0.168944 0 0,0 7.167626,3.814958 A 0.168944,0.168944 0 0,0 6.998682,3.646014 "/>
        <path style="fill:none;stroke-width:0.010000;stroke-linecap:round;stroke-linejoin:round;stroke-opacity:1;stroke:#000000;" d="M 7.458877,4.443094 A 0.168944,0.168944 0 0,0 7.289933,4.612038 A 0.168944,0.168944 0 0,0 7.458877,4.780982 A 0.168944,0.168944 0 0,0 7.627821,4.612038 A 0.168944,0.168944 0 0,0 7.458877,4.443094 "/>
        <path style="fill:none;stroke-width:0.010000;stroke-linecap:round;stroke-linejoin:round;stroke-opacity:1;stroke:#000000;" d="M 7.919072,5.240174 A 0.168944,0.168944 0 0,0 7.750128,5.409118 A 0.168944,0.168944 0 0,0 7.919072,5.578062 A 0.168944,0.168944 0 0,0 8.088016,5.409118 A 0.168944,0.168944 0 0,0 7.919072,5.240174 "/>
        <path style="fill:none;stroke-width:0.010000;stroke-linecap:round;stroke-linejoin:round;stroke-opacity:1;stroke:#000000;" d="M 8.379267,6.037253 A 0.168944,0.168944 0 0,0 8.210323,6.206198 A 0.168944,0.168944 0 0,0 8.379267,6.375142 A 0.168944,0.168944 0 0,0 8.548211,6.206198 A 0.168944,0.168944 0 0,0 8.379267,6.037253 "/>
        <path style="fill:none;stroke-width:0.010000;stroke-linecap:round;stroke-linejoin:round;stroke-opacity:1;stroke:#000000;" d="M 8.839462,6.834333 A 0.168944,0.168944 0 0,0 8.670518,7.003277 A 0.168944,0.168944 0 0,0 8.839462,7.172221 A 0.168944,0.168944 0 0,0 9.008407,7.003277 A 0.168944,0.168944 0 0,0 8.839462,6.834333 "/>
        <path style="fill:none;stroke-width:0.010000;stroke-linecap:round;stroke-linejoin:round;stroke-opacity:1;stroke:#000000;" d="M 9.299658,7.631413 A 0.168944,0.168944 0 0,0 9.130713,7.800357 A 0.168944,0.168944 0 0,0 9.299658,7.969301 A 0.168944,0.168944 0 0,0 9.468602,7.800357 A 0.168944,0.168944 0 0,0 9.299658,7.631413 "/>
        <path style="fill:none;stroke-width:0.010000;stroke-linecap:round;stroke-linejoin:round;stroke-opacity:1;stroke:#000000;" d="M 9.759853,8.428493 A 0.168944,0.168944 0 0,0 9.590909,8.597437 A 0.168944,0.168944 0 0,0 9.759853,8.766381 A 0.168944,0.168944 0 0,0 9.928797,8.597437 A 0.168944,0.168944 0 0,0 9.759853,8.428493 "/>
        <path style="fill:none;stroke-width:0.010000;stroke-linecap:round;stroke-linejoin:round;stroke-opacity:1;stroke:#000000;" d="M 10.220048,9.225572 A 0.168944,0.168944 0 0,0 10.051104,9.394517 A 0.168944,0.168944 0 0,0 10.220048,9.563461 A 0.168944,0.168944 0 0,0 10.388992,9.394517 A 0.168944,0.168944 0 0,0 10.220048,9.225572 "/>
        <path style="fill:none;stroke-width:0.010000;stroke-linecap:round;stroke-linejoin:round;stroke-opacity:1;stroke:#000000;" d="M 10.680243,10.022652 A 0.168944,0.168944 0 0,0 10.511299,10.191596 A 0.168944,0.168944 0 0,0 10.680243,10.360540 A 0.168944,0.168944 0 0,0 10.849187,10.191596 A 0.168944,0.168944 0 0,0 10.680243,10.022652 "/>
        <path style="fill:none;stroke-width:0.010000;stroke-linecap:round;stroke-linejoin:round;stroke-opacity:1;stroke:#000000;" d="M 11.599939,10.023038 A 0.168944,0.168944 0 0,0 11.430995,10.191982 A 0.168944,0.168944 0 0,0 11.599939,10.360927 A 0.168944,0.168944 0 0,0 11.768883,10.191982 A 0.168944,0.168944 0 0,0 11.599939,10.023038 "/>
        <path style="fill:none;stroke-width:0.010000;stroke-linecap:round;stroke-linejoin:round;stroke-opacity:1;stroke:#000000;" d="M 11.139744,9.225958 A 0.168944,0.168944 0 0,0 10.970799,9.394903 A 0.168944,0.168944 0 0,0 11.139744,9.563847 A 0.168944,0.168944 0 0,0 11.308688,9.394903 A 0.168944,0.168944 0 0,0 11.139744,9.225958 "/>
        <path style="fill:none;stroke-width:0.010000;stroke-linecap:round;stroke-linejoin:round;stroke-opacity:1;stroke:#000000;" d="M 10.679548,8.428879 A 0.168944,0.168944 0 0,0 10.510604,8.597823 A 0.168944,0.168944 0 0,0 10.679548,8.766767 A 0.168944,0.168944 0 0,0 10.848493,8.597823 A 0.168944,0.168944 0 0,0 10.679548,8.428879 "/>
        <path style="fill:none;stroke-width:0.010000;stroke-linecap:round;stroke-linejoin:round;stroke-opacity:1;stroke:#000000;" d="M 10.219353,7.631799 A 0.168944,0.168944 0 0,0 10.050409,7.800743 A 0.168944,0.168944 0 0,0 10.219353,7.969687 A 0.168944,0.168944 0 0,0 10.388297,7.800743 A 0.168944,0.168944 0 0,0 10.219353,7.631799 "/>
        <path style="fill:none;stroke-width:0.010000;stroke-linecap:round;stroke-linejoin:round;stroke-opacity:1;stroke:#000000;" d="M 9.759158,6.834719 A 0.168944,0.168944 0 0,0 9.590214,7.003663 A 0.168944,0.168944 0 0,0 9.759158,7.172608 A 0.168944,0.168944 0 0,0 9.928102,7.003663 A 0.168944,0.168944 0 0,0 9.759158,6.834719 "/>
        <path style="fill:none;stroke-width:0.010000;stroke-linecap:round;stroke-linejoin:round;stroke-opacity:1;stroke:#000000;" d="M 9.298963,6.037639 A 0.168944,0.168944 0 0,0 9.130019,6.206584 A 0.168944,0.168944 0 0,0 9.298963,6.375528 A 0.168944,0.168944 0 0,0 9.467907,6.206584 A 0.168944,0.168944 0 0,0 9.298963,6.037639 "/>
        <path style="fill:none;stroke-width:0.010000;stroke-linecap:round;stroke-linejoin:round;stroke-opacity:1;stroke:#000000;" d="M 8.838767,5.240560 A 0.168944,0.168944 0 0,0 8.669823,5.409504 A 0.168944,0.168944 0 0,0 8.838767,5.578448 A 0.168944,0.168944 0 0,0 9.007712,5.409504 A 0.168944,0.168944 0 0,0 8.838767,5.240560 "/>
        <path style="fill:none;stroke-width:0.010000;stroke-linecap:round;stroke-linejoin:round;stroke-opacity:1;stroke:#000000;" d="M 8.378572,4.443480 A 0.168944,0.168944 0 0,0 8.209628,4.612424 A 0.168944,0.168944 0 0,0 8.378572,4.781368 A 0.168944,0.168944 0 0,0 8.547516,4.612424 A 0.168944,0.168944 0 0,0 8.378572,4.443480 "/>
        <path style="fill:none;stroke-width:0.010000;stroke-linecap:round;stroke-linejoin:round;stroke-opacity:1;stroke:#000000;" d="M 7.918377,3.646400 A 0.168944,0.168944 0 0,0 7.749433,3.815344 A 0.168944,0.168944 0 0,0 7.918377,3.984289 A 0.168944,0.168944 0 0,0 8.087321,3.815344 A 0.168944,0.168944 0 0,0 7.918377,3.646400 "/>
        <path style="fill:none;stroke-width:0.010000;stroke-linecap:round;stroke-linejoin:round;stroke-opacity:1;stroke:#000000;" d="M 7.458182,2.849321 A 0.168944,0.168944 0 0,0 7.289238,3.018265 A 0.168944,0.168944 0 0,0 7.458182,3.187209 A 0.168944,0.168944 0 0,0 7.627126,3.018265 A 0.168944,0.168944 0 0,0 7.458182,2.849321 "/>
        <path style="fill:none;stroke-width:0.010000;stroke-linecap:round;stroke-linejoin:round;stroke-opacity:1;stroke:#000000;" d="M 6.997987,2.052241 A 0.168944,0.168944 0 0,0 6.829042,2.221185 A 0.168944,0.168944 0 0,0 6.997987,2.390129 A 0.168944,0.168944 0 0,0 7.166931,2.221185 A 0.168944,0.168944 0 0,0 6.997987,2.052241 "/>
        <path style="fill:none;stroke-width:0.010000;stroke-linecap:round;stroke-linejoin:round;stroke-opacity:1;stroke:#000000;" d="M 6.537791,1.255161 A 0.168944,0.168944 0 0,0 6.368847,1.424105 A 0.168944,0.168944 0 0,0 6.537791,1.593049 A 0.168944,0.168944 0 0,0 6.706736,1.424105 A 0.168944,0.168944 0 0,0 6.537791,1.255161 "/>
        <path style="fill:none;stroke-width:0.010000;stroke-linecap:round;stroke-linejoin:round;stroke-opacity:1;stroke:#000000;" d="M 7.457487,1.255547 A 0.168944,0.168944 0 0,0 7.288543,1.424491 A 0.168944,0.168944 0 0,0 7.457487,1.593435 A 0.168944,0.168944 0 0,0 7.626431,1.424491 A 0.168944,0.168944 0 0,0 7.457487,1.255547 "/>
        <path style="fill:none;stroke-width:0.010000;stroke-linecap:round;stroke-linejoin:round;stroke-opacity:1;stroke:#000000;" d="M 6.997292,0.458467 A 0.168944,0.168944 0 0,0 6.828348,0.627412 A 0.168944,0.168944 0 0,0 6.997292,0.796356 A 0.168944,0.168944 0 0,0 7.166236,0.627412 A 0.168944,0.168944 0 0,0 6.997292,0.458467 "/>
        <path style="fill:none;stroke-width:0.010000;stroke-linecap:round;stroke-linejoin:round;stroke-opacity:1;stroke:#000000;" d="M 7.917682,2.052627 A 0.168944,0.168944 0 0,0 7.748738,2.221571 A 0.168944,0.168944 0 0,0 7.917682,2.390515 A 0.168944,0.168944 0 0,0 8.086626,2.221571 A 0.168944,0.168944 0 0,0 7.917682,2.052627 "/>
        <path style="fill:none;stroke-width:0.010000;stroke-linecap:round;stroke-linejoin:round;stroke-opacity:1;stroke:#000000;" d="M 8.377877,2.849707 A 0.168944,0.168944 0 0,0 8.208933,3.018651 A 0.168944,0.168944 0 0,0 8.377877,3.187595 A 0.168944,0.168944 0 0,0 8.546821,3.018651 A 0.168944,0.168944 0 0,0 8.377877,2.849707 "/>
        <path style="fill:none;stroke-width:0.010000;stroke-linecap:round;stroke-linejoin:round;stroke-opacity:1;stroke:#000000;" d="M 8.838073,3.646786 A 0.168944,0.168944 0 0,0 8.669128,3.815730 A 0.168944,0.168944 0 0,0 8.838073,3.984675 A 0.168944,0.168944 0 0,0 9.007017,3.815730 A 0.168944,0.168944 0 0,0 8.838073,3.646786 "/>
        <path style="fill:none;stroke-width:0.010000;stroke-linecap:round;stroke-linejoin:round;stroke-opacity:1;stroke:#000000;" d="M 9.298268,4.443866 A 0.168944,0.168944 0 0,0 9.129324,4.612810 A 0.168944,0.168944 0 0,0 9.298268,4.781754 A 0.168944,0.168944 0 0,0 9.467212,4.612810 A 0.168944,0.168944 0 0,0 9.298268,4.443866 "/>
        <path style="fill:none;stroke-width:0.010000;stroke-linecap:round;stroke-linejoin:round;stroke-opacity:1;stroke:#000000;" d="M 9.758463,5.240946 A 0.168944,0.168944 0 0,0 9.589519,5.409890 A 0.168944,0.168944 0 0,0 9.758463,5.578834 A 0.168944,0.168944 0 0,0 9.927407,5.409890 A 0.168944,0.168944 0 0,0 9.758463,5.240946 "/>
        <path style="fill:none;stroke-width:0.010000;stroke-linecap:round;stroke-linejoin:round;stroke-opacity:1;stroke:#000000;" d="M 10.218658,6.038026 A 0.168944,0.168944 0 0,0 10.049714,6.206970 A 0.168944,0.168944 0 0,0 10.218658,6.375914 A 0.168944,0.168944 0 0,0 10.387602,6.206970 A 0.168944,0.168944 0 0,0 10.218658,6.038026 "/>
        <path style="fill:none;stroke-width:0.010000;stroke-linecap:round;stroke-linejoin:round;stroke-opacity:1;stroke:#000000;" d="M 10.678853,6.835105 A 0.168944,0.168944 0 0,0 10.509909,7.004049 A 0.168944,0.168944 0 0,0 10.678853,7.172994 A 0.168944,0.168944 0 0,0 10.847798,7.004049 A 0.168944,0.168944 0 0,0 10.678853,6.835105 "/>
        <path style="fill:none;stroke-width:0.010000;stroke-linecap:round;stroke-linejoin:round;stroke-opacity:1;stroke:#000000;" d="M 11.139049,7.632185 A 0.168944,0.168944 0 0,0 10.970105,7.801129 A 0.168944,0.168944 0 0,0 11.139049,7.970073 A 0.168944,0.168944 0 0,0 11.307993,7.801129 A 0.168944,0.168944 0 0,0 11.139049,7.632185 "/>
        <path style="fill:none;stroke-width:0.010000;stroke-linecap:round;stroke-linejoin:round;stroke-opacity:1;stroke:#000000;" d="M 11.599244,8.429265 A 0.168944,0.168944 0 0,0 11.430300,8.598209 A 0.168944,0.168944 0 0,0 11.599244,8.767153 A 0.168944,0.168944 0 0,0 11.768188,8.598209 A 0.168944,0.168944 0 0,0 11.599244,8.429265 "/>
        <path style="fill:none;stroke-width:0.010000;stroke-linecap:round;stroke-linejoin:round;stroke-opacity:1;stroke:#000000;" d="M 12.059439,9.226345 A 0.168944,0.168944 0 0,0 11.890495,9.395289 A 0.168944,0.168944 0 0,0 12.059439,9.564233 A 0.168944,0.168944 0 0,0 12.228383,9.395289 A 0.168944,0.168944 0 0,0 12.059439,9.226345 "/>
        <path style="fill:none;stroke-width:0.010000;stroke-linecap:round;stroke-linejoin:round;stroke-opacity:1;stroke:#000000;" d="M 12.519634,10.023424 A 0.168944,0.168944 0 0,0 12.350690,10.192368 A 0.168944,0.168944 0 0,0 12.519634,10.361313 A 0.168944,0.168944 0 0,0 12.688578,10.192368 A 0.168944,0.168944 0 0,0 12.519634,10.023424 "/>
        <path style="fill:none;stroke-width:0.010000;stroke-linecap:round;stroke-linejoin:round;stroke-opacity:1;stroke:#000000;" d="M 10.678236,5.241332 A 0.168944,0.168944 0 0,0 10.509292,5.410276 A 0.168944,0.168944 0 0,0 10.678236,5.579220 A 0.168944,0.168944 0 0,0 10.847180,5.410276 A 0.168944,0.168944 0 0,0 10.678236,5.241332 "/>
        <path style="fill:none;stroke-width:0.010000;stroke-linecap:round;stroke-linejoin:round;stroke-opacity:1;stroke:#000000;" d="M 11.138431,6.038412 A 0.168944,0.168944 0 0,0 10.969487,6.207356 A 0.168944,0.168944 0 0,0 11.138431,6.376300 A 0.168944,0.168944 0 0,0 11.307375,6.207356 A 0.168944,0.168944 0 0,0 11.138431,6.038412 "/>
        <path style="fill:none;stroke-width:0.010000;stroke-linecap:round;stroke-linejoin:round;stroke-opacity:1;stroke:#000000;" d="M 10.218041,4.444252 A 0.168944,0.168944 0 0,0 10.049096,4.613196 A 0.168944,0.168944 0 0,0 10.218041,4.782140 A 0.168944,0.168944 0 0,0 10.386985,4.613196 A 0.168944,0.168944 0 0,0 10.218041,4.444252 "/>
        <path style="fill:none;stroke-width:0.010000;stroke-linecap:round;stroke-linejoin:round;stroke-opacity:1;stroke:#000000;" d="M 9.757845,3.647172 A 0.168944,0.168944 0 0,0 9.588901,3.816117 A 0.168944,0.168944 0 0,0 9.757845,3.985061 A 0.168944,0.168944 0 0,0 9.926789,3.816117 A 0.168944,0.168944 0 0,0 9.757845,3.647172 "/>
        <path style="fill:none;stroke-width:0.010000;stroke-linecap:round;stroke-linejoin:round;stroke-opacity:1;stroke:#000000;" d="M 10.677541,3.647558 A 0.168944,0.168944 0 0,0 10.508597,3.816503 A 0.168944,0.168944 0 0,0 10.677541,3.985447 A 0.168944,0.168944 0 0,0 10.846485,3.816503 A 0.168944,0.168944 0 0,0 10.677541,3.647558 "/>
        <path style="fill:none;stroke-width:0.010000;stroke-linecap:round;stroke-linejoin:round;stroke-opacity:1;stroke:#000000;" d="M 11.137736,4.444638 A 0.168944,0.168944 0 0,0 10.968792,4.613582 A 0.168944,0.168944 0 0,0 11.137736,4.782527 A 0.168944,0.168944 0 0,0 11.306680,4.613582 A 0.168944,0.168944 0 0,0 11.137736,4.444638 "/>
        <path style="fill:none;stroke-width:0.010000;stroke-linecap:round;stroke-linejoin:round;stroke-opacity:1;stroke:#000000;" d="M 11.597931,5.241718 A 0.168944,0.168944 0 0,0 11.428987,5.410662 A 0.168944,0.168944 0 0,0 11.597931,5.579606 A 0.168944,0.168944 0 0,0 11.766875,5.410662 A 0.168944,0.168944 0 0,0 11.597931,5.241718 "/>
        <path style="fill:none;stroke-width:0.010000;stroke-linecap:round;stroke-linejoin:round;stroke-opacity:1;stroke:#000000;" d="M 12.057432,4.445024 A 0.168944,0.168944 0 0,0 11.888487,4.613968 A 0.168944,0.168944 0 0,0 12.057432,4.782913 A 0.168944,0.168944 0 0,0 12.226376,4.613968 A 0.168944,0.168944 0 0,0 12.057432,4.445024 "/>
        <path style="fill:none;stroke-width:0.010000;stroke-linecap:round;stroke-linejoin:round;stroke-opacity:1;stroke:#000000;" d="M 11.597236,3.647945 A 0.168944,0.168944 0 0,0 11.428292,3.816889 A 0.168944,0.168944 0 0,0 11.597236,3.985833 A 0.168944,0.168944 0 0,0 11.766180,3.816889 A 0.168944,0.168944 0 0,0 11.597236,3.647945 "/>
        <path style="fill:none;stroke-width:0.010000;stroke-linecap:round;stroke-linejoin:round;stroke-opacity:1;stroke:#000000;" d="M 12.517009,3.648331 A 0.168944,0.168944 0 0,0 12.348065,3.817275 A 0.168944,0.168944 0 0,0 12.517009,3.986219 A 0.168944,0.168944 0 0,0 12.685953,3.817275 A 0.168944,0.168944 0 0,0 12.517009,3.648331 "/>
    </g>
    <g inkscape:groupmode="layer" id="3f1279fd-98aa-405b-bb23-cedced6192b1" inkscape:label="Pockets">
        <path style="fill:none;stroke-width:0.010000;stroke-linecap:round;stroke-linejoin:round;stroke-opacity:1;stroke:#000000;" d="M 5.568527,13.150062 A 0.323089,0.323089 0 0,0 5.921414,12.673584 L 4.920599,10.943632 A 0.323074,0.323074 0 0,0 4.641081,10.782354 L 2.636676,10.781466 A 0.323070,0.323070 0 0,0 2.401041,11.325782 A 6.311996,6.311996 0 0,0 5.568527,13.150062 "/>
        <path style="fill:none;stroke-width:0.010000;stroke-linecap:round;stroke-linejoin:round;stroke-opacity:1;stroke:#000000;" d="M 9.374066,10.784284 A 0.323063,0.323063 0 0,0 9.094022,10.946071 L 8.101621,12.668575 A 0.323097,0.323097 0 0,0 8.456145,13.144226 A 6.312005,6.312005 0 0,0 11.595306,11.329705 A 0.323083,0.323083 0 0,0 11.360165,10.785172 L 9.374066,10.784284 "/>
        <path style="fill:none;stroke-width:0.010000;stroke-linecap:round;stroke-linejoin:round;stroke-opacity:1;stroke:#000000;" d="M 2.404782,2.675248 A 0.323087,0.323087 0 0,0 2.639902,3.219800 L 4.629866,3.220649 A 0.323069,0.323069 0 0,0 4.909914,3.058989 L 5.904113,1.335182 A 0.323061,0.323061 0 0,0 5.550041,0.859352 A 6.311960,6.311960 0 0,0 2.404782,2.675248 "/>
        <path style="fill:none;stroke-width:0.010000;stroke-linecap:round;stroke-linejoin:round;stroke-opacity:1;stroke:#000000;" d="M 9.087439,3.061123 A 0.323068,0.323068 0 0,0 9.367092,3.222657 L 11.363312,3.223506 A 0.323033,0.323033 0 0,0 11.598919,2.679253 A 6.311964,6.311964 0 0,0 8.443911,0.857873 A 0.323073,0.323073 0 0,0 8.090220,1.333924 L 9.087439,3.061123 "/>
        <path style="fill:none;stroke-width:0.010000;stroke-linecap:round;stroke-linejoin:round;stroke-opacity:1;stroke:#000000;" d="M 11.457922,7.166808 L 12.454283,8.892402 A 0.323058,0.323058 0 0,0 13.043405,8.824170 A 6.312004,6.312004 0 0,0 13.043867,5.182297 A 0.323118,0.323118 0 0,0 12.454481,5.114193 L 11.457771,6.843929 A 0.323073,0.323073 0 0,0 11.457922,7.166808 "/>
        <path style="fill:none;stroke-width:0.010000;stroke-linecap:round;stroke-linejoin:round;stroke-opacity:1;stroke:#000000;" d="M 1.546010,5.110982 A 0.323091,0.323091 0 0,0 0.957013,5.179456 A 6.311998,6.311998 0 0,0 0.956363,8.823476 A 0.323071,0.323071 0 0,0 1.545548,8.891653 L 2.544619,7.159667 A 0.323055,0.323055 0 0,0 2.544371,6.836455 L 1.546010,5.110982 "/>
    </g>
    <g inkscape:groupmode="layer" id="edb6431c-c3c3-41e8-8bbb-a5c1f046120d" inkscape:label="V Groove Home Base">
        <path style="fill:none;stroke-width:0.010000;stroke-linecap:round;stroke-linejoin:round;stroke-opacity:1;stroke:#000000;" d="M 7.302631,0.451297 A 0.352558,0.352558 0 0,0 6.691924,0.451384 L 5.313450,2.841409 A 0.352567,0.352567 0 0,0 5.618685,3.370122 L 8.377694,3.371203 A 0.352542,0.352542 0 0,0 8.683166,2.842362 L 7.302631,0.451297 "/>
        <path style="fill:none;stroke-width:0.010000;stroke-linecap:round;stroke-linejoin:round;stroke-opacity:1;stroke:#000000;" d="M 10.833014,6.383701 A 0.352560,0.352560 0 0,0 11.443726,6.383618 L 12.822293,3.993532 A 0.352547,0.352547 0 0,0 12.517030,3.464800 L 9.757951,3.463719 A 0.352542,0.352542 0 0,0 9.452479,3.992560 L 10.833014,6.383701 "/>
        <path style="fill:none;stroke-width:0.010000;stroke-linecap:round;stroke-linejoin:round;stroke-opacity:1;stroke:#000000;" d="M 4.239778,3.461325 L 1.480614,3.460244 A 0.352542,0.352542 0 0,0 1.175142,3.989086 L 2.555744,6.380235 A 0.352564,0.352564 0 0,0 3.166461,6.380140 L 4.545013,3.990038 A 0.352567,0.352567 0 0,0 4.239778,3.461325 "/>
        <path style="fill:none;stroke-width:0.010000;stroke-linecap:round;stroke-linejoin:round;stroke-opacity:1;stroke:#000000;" d="M 3.166974,7.621309 A 0.352557,0.352557 0 0,0 2.556267,7.621396 L 1.177716,10.011497 A 0.352567,0.352567 0 0,0 1.482951,10.540211 L 4.242045,10.541292 A 0.352561,0.352561 0 0,0 4.547483,10.012472 L 3.166974,7.621309 "/>
        <path style="fill:none;stroke-width:0.010000;stroke-linecap:round;stroke-linejoin:round;stroke-opacity:1;stroke:#000000;" d="M 5.317533,11.163701 L 6.706490,13.549741 A 0.352552,0.352552 0 0,0 7.316908,13.548035 L 8.686839,11.163049 A 0.352560,0.352560 0 0,0 8.381304,10.634888 L 5.622371,10.633807 A 0.352532,0.352532 0 0,0 5.317533,11.163701 "/>
        <path style="fill:none;stroke-width:0.010000;stroke-linecap:round;stroke-linejoin:round;stroke-opacity:1;stroke:#000000;" d="M 9.760288,10.543685 L 12.519459,10.544766 A 0.352561,0.352561 0 0,0 12.824897,10.015946 L 11.444311,7.624783 A 0.352557,0.352557 0 0,0 10.833604,7.624870 L 9.455053,10.014972 A 0.352567,0.352567 0 0,0 9.760288,10.543685 "/>
    </g>
</svg>
